<?xml version="1.0" encoding="UTF-8"?>
<svg width="523px" height="266px" viewBox="0 0 523 266" version="1.1" xmlns="http://www.w3.org/2000/svg" xmlns:xlink="http://www.w3.org/1999/xlink">
    <!-- Generator: Sketch 49 (51002) - http://www.bohemiancoding.com/sketch -->
    <title>Group 8</title>
    <desc>Created with Sketch.</desc>
    <defs>
        <linearGradient x1="98.048868%" y1="50%" x2="0%" y2="50%" id="linearGradient-1">
            <stop stop-color="#A39AF1" offset="0%"></stop>
            <stop stop-color="#2B95D8" offset="100%"></stop>
        </linearGradient>
        <linearGradient x1="50%" y1="8.8793313%" x2="66.4577249%" y2="94.9456243%" id="linearGradient-2">
            <stop stop-color="#A39AF1" offset="0%"></stop>
            <stop stop-color="#2B95D8" offset="100%"></stop>
        </linearGradient>
        <path d="M162.38744,76.980296 C162.196965,72.7877094 162.196965,68.7856949 162.196965,64.7836805 C162.196965,61.6262131 159.638579,59.0665169 156.482727,59.0665169 C132.673403,59.0665169 114.578317,52.2059207 99.5308242,37.5318676 C97.3087446,35.3529434 93.7529708,35.3529434 91.5308913,37.5318676 C76.4833984,52.2059207 58.3883121,59.0665169 34.5789881,59.0665169 C31.4231366,59.0665169 28.8647503,61.6262131 28.8647503,64.7836805 C28.8647503,68.7856949 28.8647503,72.7877094 28.6742757,76.980296 C27.9123773,117.000441 26.7695298,171.885211 93.6261118,194.944437 L95.5308577,195.325581 L97.4356036,194.944437 C164.101711,171.885211 163.149338,117.191013 162.38744,76.980296 Z" id="path-3"></path>
        <filter x="-47.7%" y="-37.0%" width="195.5%" height="180.3%" filterUnits="objectBoundingBox" id="filter-4">
            <feGaussianBlur stdDeviation="15" in="SourceGraphic"></feGaussianBlur>
        </filter>
        <filter x="-56.7%" y="-44.5%" width="213.4%" height="195.3%" filterUnits="objectBoundingBox" id="filter-5">
            <feOffset dx="0" dy="5" in="SourceAlpha" result="shadowOffsetOuter1"></feOffset>
            <feGaussianBlur stdDeviation="9.5" in="shadowOffsetOuter1" result="shadowBlurOuter1"></feGaussianBlur>
            <feColorMatrix values="0 0 0 0 0   0 0 0 0 0   0 0 0 0 0  0 0 0 0.15 0" type="matrix" in="shadowBlurOuter1"></feColorMatrix>
        </filter>
        <path d="M152.909943,83.1528427 C152.744965,79.5155656 152.744965,76.0436192 152.744965,72.5716729 C152.744965,69.8324131 150.52904,67.6117495 147.795626,67.6117495 C127.173376,67.6117495 111.500467,61.6598415 98.4672055,48.9293716 C96.5425697,47.0390467 93.4627656,47.0390467 91.5381298,48.9293716 C78.5048683,61.6598415 62.8319589,67.6117495 42.2097097,67.6117495 C39.476295,67.6117495 37.2603699,69.8324131 37.2603699,72.5716729 C37.2603699,76.0436192 37.2603699,79.5155656 37.0953919,83.1528427 C36.4354799,117.872306 35.4456119,165.48757 93.3528877,185.492594 L95.0026677,185.823256 L96.6524476,185.492594 C154.394745,165.48757 153.569855,118.037637 152.909943,83.1528427 Z" id="path-6"></path>
        <filter x="-26.7%" y="-18.8%" width="153.4%" height="144.8%" filterUnits="objectBoundingBox" id="filter-7">
            <feOffset dx="0" dy="5" in="SourceAlpha" result="shadowOffsetOuter1"></feOffset>
            <feGaussianBlur stdDeviation="9.5" in="shadowOffsetOuter1" result="shadowBlurOuter1"></feGaussianBlur>
            <feColorMatrix values="0 0 0 0 0   0 0 0 0 0   0 0 0 0 0  0 0 0 0.15 0" type="matrix" in="shadowBlurOuter1"></feColorMatrix>
        </filter>
        <linearGradient x1="84.765625%" y1="93.5386083%" x2="31.7162298%" y2="0%" id="linearGradient-8">
            <stop stop-color="#2D95D9" offset="0%"></stop>
            <stop stop-color="#A49AF1" offset="100%"></stop>
        </linearGradient>
        <filter x="-30.8%" y="-30.8%" width="161.5%" height="161.5%" filterUnits="objectBoundingBox" id="filter-9">
            <feGaussianBlur stdDeviation="12" in="SourceGraphic"></feGaussianBlur>
        </filter>
        <circle id="path-10" cx="61" cy="58" r="56"></circle>
        <filter x="-27.7%" y="-23.2%" width="155.4%" height="155.4%" filterUnits="objectBoundingBox" id="filter-11">
            <feOffset dx="0" dy="5" in="SourceAlpha" result="shadowOffsetOuter1"></feOffset>
            <feGaussianBlur stdDeviation="9.5" in="shadowOffsetOuter1" result="shadowBlurOuter1"></feGaussianBlur>
            <feComposite in="shadowBlurOuter1" in2="SourceAlpha" operator="out" result="shadowBlurOuter1"></feComposite>
            <feColorMatrix values="0 0 0 0 0   0 0 0 0 0   0 0 0 0 0  0 0 0 0.15 0" type="matrix" in="shadowBlurOuter1"></feColorMatrix>
        </filter>
    </defs>
    <g id="Main-1920" stroke="none" stroke-width="1" fill="none" fill-rule="evenodd">
        <g transform="translate(-990.000000, -1331.000000)" id="Group-8">
            <g transform="translate(990.000000, 1331.000000)">
                <g id="laptop" fill-rule="nonzero">
                    <path d="M427.535256,3.90876271 C424.930607,1.27539897 421.481127,0 418.023852,0 L59.9790708,0 C56.5364124,0 53.0820609,1.27539897 50.4627953,3.90876271 C47.8435296,6.51687103 46.5309735,9.94383794 46.5309735,13.3902321 L46.5309735,247 L431.469027,247 L431.469027,13.3902321 C431.466103,9.94383794 430.17401,6.51687103 427.535256,3.90876271 Z" id="Shape" fill="#353F49"></path>
                    <polygon id="Rectangle-path" fill="#FFFFFF" points="62.7108499 15.472189 416.346672 15.472189 416.346672 246.80991 62.7108499 246.80991"></polygon>
                    <path d="M62.7108499,136.154297 C115.664759,161.402416 175.802935,151.528973 243.125376,106.533968 C310.447817,61.5389625 368.188249,52.0591793 416.346672,78.0946181 L416.346672,246.80991 L62.7108499,246.80991 L62.7108499,136.154297 Z" id="Rectangle-path" fill="url(#linearGradient-1)" opacity="0.07"></path>
                    <path d="M62.7108499,162.543186 C115.664759,187.791305 175.802935,177.917862 243.125376,132.922857 C310.447817,87.9278514 368.188249,78.4480682 416.346672,104.483507 L416.346672,246.80991 L62.7108499,246.80991 L62.7108499,162.543186 Z" id="Rectangle-path" fill="url(#linearGradient-1)" opacity="0.07"></path>
                    <path d="M62.7108499,188.932075 C115.664759,214.180194 175.802935,204.306751 243.125376,159.311746 C310.447817,114.31674 368.188249,104.836957 416.346672,130.872396 L416.346672,246.80991 L62.7108499,246.80991 L62.7108499,188.932075 Z" id="Rectangle-path" fill="url(#linearGradient-1)" opacity="0.07"></path>
                    <path d="M62.0672127,266 L415.940586,266 C438.032868,266 459.00986,261.492749 478,253.333333 L0,253.333333 C18.9774658,261.493699 39.9749311,266 62.0672127,266 Z" id="Shape" fill="#C7CBD6"></path>
                    <polygon id="Rectangle-path" fill="#E2E5ED" points="0 245.944444 478 245.944444 478 253.333333 0 253.333333"></polygon>
                    <rect id="Rectangle-path" fill="#C7CBD6" x="203.044248" y="245.944444" width="86.7168142" height="4.22222222"></rect>
                </g>
                <g id="shield" transform="translate(136.000000, 16.000000)" fill-rule="nonzero">
                    <g id="Shape" opacity="0.39" filter="url(#filter-4)">
                        <use fill="black" fill-opacity="1" filter="url(#filter-5)" xlink:href="#path-3"></use>
                        <use fill="url(#linearGradient-2)" fill-rule="evenodd" xlink:href="#path-3"></use>
                    </g>
                    <g id="Shape">
                        <use fill="black" fill-opacity="1" filter="url(#filter-7)" xlink:href="#path-6"></use>
                        <use fill="url(#linearGradient-2)" fill-rule="evenodd" xlink:href="#path-6"></use>
                    </g>
                    <path d="M159.780514,78.1748556 C159.625343,74.7536298 159.594325,72.1095303 159.594325,66.2392035 C159.594325,63.4294347 157.320069,61.1518972 154.515069,61.1518972 C131.159888,61.1518972 113.359491,54.4105617 98.5582506,39.9632174 C96.5831403,38.024664 93.4228741,38.024664 91.4467781,39.9641822 C76.6465236,54.4105617 58.8461263,61.1518972 35.4909455,61.1518972 C32.6859455,61.1518972 30.4116897,63.4294347 30.4116897,66.2392035 C30.4116897,72.1133079 30.3806319,74.7570315 30.2256241,78.1682985 C30.2194018,78.4953604 30.2194018,78.4953604 30.2131683,78.8232989 C29.8566914,97.5899549 30.0539937,107.068886 31.5522368,118.393191 C36.3578283,154.715723 54.2631385,179.492128 93.2414494,192.953279 L95.0036511,193.306228 L96.6991788,192.971058 C126.369913,182.69866 144.043732,165.533272 152.790855,141.913247 C156.372264,132.2423 158.42375,121.634273 159.340039,109.543783 C160.023069,100.531146 160.06546,93.2301997 159.780514,78.1748556 Z" id="Shape" stroke="url(#linearGradient-8)" opacity="0.32"></path>
                    <path d="M167.150871,73.2055371 C166.978201,69.3988069 166.943684,66.4568175 166.943684,59.9241248 C166.943684,56.7659649 164.387401,54.2059937 161.234512,54.2059937 C135.256725,54.2059937 115.460846,46.7089327 98.9995313,30.6412067 C96.7794673,28.4622334 93.2272261,28.4622334 91.0061764,30.6421715 C74.5458478,46.7089327 54.7499686,54.2059937 28.7721812,54.2059937 C25.6192922,54.2059937 23.0630095,56.7659649 23.0630095,59.9241248 C23.0630095,66.4605954 23.0284521,69.4022085 22.8559467,73.1989796 C22.8490219,73.5629676 22.8490219,73.5629676 22.8420846,73.927933 C22.4453078,94.8161634 22.6649286,105.367329 24.3328157,117.97387 C26.794419,136.579626 32.2683915,152.220685 41.8671639,165.50295 C53.1066402,181.055533 69.8266265,192.984133 93.0318169,200.999981 L95.0039228,201.394971 L96.9094903,201.017759 C129.946028,189.580076 149.627973,170.464332 159.368567,144.161616 C163.356338,133.393363 165.640416,121.582624 166.660527,108.122197 C167.420862,98.0895205 167.468036,89.9629243 167.150871,73.2055371 Z" id="Shape" stroke="url(#linearGradient-8)" opacity="0.22"></path>
                    <path d="M174.521227,68.2362186 C174.33106,64.043984 174.293043,60.8041047 174.293043,53.6090461 C174.293043,50.1024951 171.454734,47.2600901 167.953955,47.2600901 C139.353562,47.2600901 117.562201,39.0073037 99.440812,21.319196 C96.9757944,18.8998029 93.0315781,18.8998029 90.5655748,21.3201608 C72.4451719,39.0073037 50.6538109,47.2600901 22.053417,47.2600901 C18.5526388,47.2600901 15.7143293,50.1024951 15.7143293,53.6090461 C15.7143293,60.8078829 15.6762724,64.0473855 15.4862693,68.2296607 C15.478642,68.6305748 15.478642,68.6305748 15.4710009,69.0325672 C15.0339243,92.042372 15.2758634,103.665772 17.1133947,117.554549 C19.8257506,138.055591 25.8577923,155.29125 36.4357637,169.928478 C48.8218002,187.067609 67.2466832,200.21254 92.8221844,209.046682 L95.0042074,209.483716 L97.1198018,209.064461 C133.522144,196.461492 155.212214,175.395391 165.94628,146.409985 C170.340411,134.544427 172.857082,121.530975 173.981015,106.700611 C174.818655,95.6478947 174.870612,86.6956489 174.521227,68.2362186 Z" id="Shape" stroke="url(#linearGradient-8)" opacity="0.12"></path>
                    <path d="M181.891584,63.2669 C181.683919,58.6891611 181.642402,55.151392 181.642402,47.2939674 C181.642402,43.4390253 178.522066,40.3141865 174.673399,40.3141865 C143.450398,40.3141865 119.663555,31.3056747 99.8820927,11.9971853 C97.1721214,9.33737234 92.8359301,9.33737234 90.1249731,11.9981501 C70.3444961,31.3056747 46.5576533,40.3141865 15.3346528,40.3141865 C11.4859854,40.3141865 8.36564909,43.4390253 8.36564909,47.2939674 C8.36564909,55.1551703 8.32409267,58.6925625 8.11659188,63.2603418 C8.1082621,63.6981819 8.1082621,63.6981819 8.09991719,64.1372014 C7.62254082,89.2685805 7.88679829,101.964215 9.89397359,117.135228 C12.8570822,139.531557 19.4471932,158.361815 31.0043634,174.354006 C44.5369603,193.079685 64.6667399,207.440947 92.6125519,217.093384 L95.0045015,217.572464 L97.3301134,217.111162 C137.098259,203.342908 160.796454,180.32645 172.523992,148.658354 C177.324485,135.69549 180.073749,121.479326 181.301503,105.279025 C182.216447,93.2062689 182.273188,83.4283734 181.891584,63.2669 Z" id="Shape" stroke="url(#linearGradient-8)" opacity="0.06"></path>
                    <path d="M189.26194,58.2975814 C189.036778,53.3343381 188.991762,49.4986793 188.991762,40.9788888 C188.991762,36.7755555 185.589398,33.3682829 181.392842,33.3682829 C147.547235,33.3682829 121.76491,23.6040457 100.323373,2.67517461 C97.3684485,-0.225058205 92.6402821,-0.225058205 89.6843714,2.67613939 C68.2438203,23.6040457 42.4614956,33.3682829 8.61588858,33.3682829 C4.41933208,33.3682829 1.01696889,36.7755555 1.01696889,40.9788888 C1.01696889,49.5024578 0.971912945,53.3377395 0.746914486,58.2910229 C0.737882195,58.7657891 0.737882195,58.7657891 0.728833476,59.2418355 C0.211157308,86.494789 0.497733156,100.262658 2.67455252,116.715907 C5.88841378,141.007522 13.0365941,161.43238 25.5729631,178.779533 C40.2521203,199.091762 62.0867966,214.669353 92.4029195,225.140085 L95.004803,225.661213 L97.5404249,225.157864 C140.674375,210.224324 166.380695,185.25751 179.101704,150.906724 C184.308559,136.846554 187.290415,121.427677 188.621991,103.857439 C189.61424,90.764643 189.675764,80.1610979 189.26194,58.2975814 Z" id="Shape" stroke="url(#linearGradient-8)" opacity="0.02"></path>
                </g>
                <g id="Group" transform="translate(201.000000, 111.000000)" fill="#FFFFFF">
                    <rect id="Rectangle" opacity="0.5" x="11.7173913" y="0" width="37.2826087" height="7.35"></rect>
                    <rect id="Rectangle" opacity="0.5" x="11.7173913" y="17.85" width="37.2826087" height="7.35"></rect>
                    <rect id="Rectangle" opacity="0.5" x="11.7173913" y="34.65" width="37.2826087" height="7.35"></rect>
                    <path d="M28.7608696,9.45 L28.7608696,14.5563158 L10.9681282,14.5563158 C7.73744558,14.5563158 5.11845984,17.1690877 5.11845984,20.3921053 L5.11845984,21.6078947 C5.11845984,24.8309123 7.73744558,27.4436842 10.9681282,27.4436842 L28.7608696,27.4436842 L28.7608696,32.55 L10.9681282,32.55 C4.91059827,32.55 0,27.6510526 0,21.6078947 L0,20.3921053 C0,14.3489474 4.91059827,9.45 10.9681282,9.45 L28.7608696,9.45 Z" id="Combined-Shape" fill-rule="nonzero" opacity="0.75"></path>
                </g>
                <g id="Group-5" transform="translate(377.000000, 38.000000)">
                    <circle id="Oval-2" fill="url(#linearGradient-2)" opacity="0.25" filter="url(#filter-9)" cx="58.5" cy="58.5" r="58.5"></circle>
                    <g id="Oval-6">
                        <use fill="black" fill-opacity="1" filter="url(#filter-11)" xlink:href="#path-10"></use>
                        <use fill="url(#linearGradient-2)" fill-rule="evenodd" xlink:href="#path-10"></use>
                        <circle stroke-opacity="0.19" stroke="#FFFFFF" stroke-width="5" cx="61" cy="58" r="53.5"></circle>
                    </g>
                    <g id="Group" opacity="0.72" transform="translate(38.000000, 21.000000)" fill="#FFFFFF" fill-rule="nonzero">
                        <path d="M44.7329377,36.5526565 L23.1676558,26.4139635 L21.8991098,26.4139635 L0.333827893,36.5526565 L22.5,0 L44.7329377,36.5526565 Z M43.9317507,43.9355661 L22.5,73.4845201 L1.06824926,43.9355661 L21.8991098,53.7407495 L23.1676558,53.7407495 L43.9317507,43.9355661 Z M21.0311573,30.0158676 L21.0311573,49.6262344 L0,39.9544548 L10.3486647,35.0852141 L21.0311573,30.0158676 Z M45,39.9544548 L23.9688427,49.6262344 L23.9688427,30.0158676 L34.6513353,35.0852141 L45,39.9544548 Z" id="Combined-Shape"></path>
                    </g>
                </g>
            </g>
        </g>
    </g>
</svg>