<?xml version="1.0" encoding="UTF-8"?>
<svg width="34px" height="39px" viewBox="0 0 34 39" version="1.1" xmlns="http://www.w3.org/2000/svg" xmlns:xlink="http://www.w3.org/1999/xlink">
    <!-- Generator: Sketch 49 (51002) - http://www.bohemiancoding.com/sketch -->
    <title>play</title>
    <desc>Created with Sketch.</desc>
    <defs>
        <linearGradient x1="98.048868%" y1="50%" x2="0%" y2="50%" id="linearGradient-1">
            <stop stop-color="#A39AF1" offset="0%"></stop>
            <stop stop-color="#2B95D8" offset="100%"></stop>
        </linearGradient>
    </defs>
    <g id="Main-1920" stroke="none" stroke-width="1" fill="none" fill-rule="evenodd">
        <g transform="translate(-1335.000000, -2708.000000)" fill="url(#linearGradient-1)" fill-rule="nonzero" id="play">
            <g transform="translate(1335.000000, 2708.000000)">
                <path d="M31.3856757,14.9996895 L8.22891892,0.800871094 C6.55357658,-0.225087891 4.52804955,-0.267744141 2.81051351,0.686765625 C1.09297748,1.64112305 0.0676171171,3.37944141 0.0676171171,5.33637305 L0.0676171171,33.6046699 C0.0676171171,36.5636426 2.46446396,38.9838516 5.41036486,38.9998477 C5.41840541,38.9998477 5.42644595,38.9999238 5.43433333,38.9999238 C6.35493694,38.9998477 7.31428829,38.712832 8.21031081,38.1689648 C8.93112613,37.7315098 9.15894144,36.7956621 8.71916216,36.0787324 C8.27938288,35.3616504 7.33840991,35.1351152 6.61782432,35.5725703 C6.19872072,35.826832 5.78941892,35.9583809 5.42682883,35.9583047 C4.31531982,35.9522871 3.12524324,35.005166 3.12524324,33.6047461 L3.12524324,5.33644922 C3.12524324,4.49695898 3.5650991,3.75146484 4.30176577,3.34204102 C5.03850901,2.93261719 5.90727027,2.95089844 6.62502252,3.39048633 L29.7818559,17.5893047 C30.4778604,18.0155625 30.8761351,18.7263223 30.8744505,19.5393809 C30.8727658,20.3523633 30.4715811,21.0615234 29.7717477,21.486334 L13.0292748,31.6833105 C12.3091486,32.1219082 12.0827883,33.0581367 12.5237162,33.7743809 C12.9645676,34.4907012 13.9057703,34.7158652 14.6258964,34.2772676 L31.3663784,24.0815098 C32.9692027,23.1088711 33.9284009,21.4132852 33.9322297,19.5454746 C33.9360586,17.6778926 32.9837523,15.9783457 31.3856757,14.9996895 Z" id="Shape"></path>
            </g>
        </g>
    </g>
</svg>