<?xml version="1.0" encoding="UTF-8"?>
<svg width="41px" height="41px" viewBox="0 0 41 41" version="1.1" xmlns="http://www.w3.org/2000/svg" xmlns:xlink="http://www.w3.org/1999/xlink">
    <!-- Generator: Sketch 49 (51002) - http://www.bohemiancoding.com/sketch -->
    <title>settings</title>
    <desc>Created with Sketch.</desc>
    <defs>
        <linearGradient x1="98.048868%" y1="50%" x2="0%" y2="50%" id="linearGradient-1">
            <stop stop-color="#A39AF1" offset="0%"></stop>
            <stop stop-color="#2B95D8" offset="100%"></stop>
        </linearGradient>
    </defs>
    <g id="Main-1920" stroke="none" stroke-width="1" fill="none" fill-rule="evenodd">
        <g transform="translate(-1330.000000, -2470.000000)" fill="url(#linearGradient-1)" fill-rule="nonzero" id="settings">
            <g transform="translate(1330.000000, 2470.000000)">
                <path d="M20.5,11.2109375 C15.3779629,11.2109375 11.2109375,15.378043 11.2109375,20.5 C11.2109375,25.621957 15.3779629,29.7890625 20.5,29.7890625 C21.4566934,29.7890625 22.4006543,29.6438809 23.3056172,29.3574414 C24.1489199,29.090541 24.6160957,28.190543 24.3491953,27.3472402 C24.082375,26.5039375 23.1821367,26.0366816 22.3389941,26.303582 C21.7470566,26.4909648 21.128373,26.5859375 20.5,26.5859375 C17.1442461,26.5859375 14.4140625,23.855834 14.4140625,20.5 C14.4140625,17.144166 17.1442461,14.4140625 20.5,14.4140625 C23.8557539,14.4140625 26.5859375,17.144166 26.5859375,20.5 C26.5859375,21.083209 26.5039375,21.6594512 26.3420996,22.2125508 C26.0937773,23.0615391 26.5807324,23.9509668 27.4297207,24.1992891 C28.2788691,24.4476113 29.1681367,23.9606562 29.4165391,23.111668 C29.6637402,22.2663633 29.7890625,21.3875859 29.7890625,20.5 C29.7890625,15.378043 25.6220371,11.2109375 20.5,11.2109375 Z" id="Shape"></path>
                <path d="M36.1953125,14.8946113 L35.3888457,14.8946113 C35.1766387,14.8946113 34.984291,14.7609609 34.9010098,14.5593242 L34.8867559,14.5247305 C34.8005117,14.3170078 34.841752,14.0858223 34.9917383,13.9357559 L35.5621348,13.3654395 C37.4354824,11.4920918 37.4354824,8.44391797 35.5621348,6.57057031 L34.4296699,5.43810547 C33.5221445,4.53058008 32.3155273,4.0308125 31.0321953,4.0308125 C29.7487031,4.0308125 28.542166,4.53058008 27.6347207,5.43810547 L27.0644844,6.0083418 C26.9143379,6.15848828 26.6829121,6.19964844 26.4761504,6.11372461 L26.4459609,6.10123242 C26.2391191,6.01578906 26.1055488,5.82352148 26.1055488,5.61139453 L26.1055488,4.8046875 C26.1055488,2.15538281 23.950166,0 21.3008613,0 L19.6992988,0 C17.0499941,0 14.8946113,2.15538281 14.8946113,4.8046875 L14.8946113,5.61139453 C14.8946113,5.82352148 14.761041,6.01578906 14.5559609,6.10043164 L14.5246504,6.1134043 C14.317168,6.19972852 14.0857422,6.15848828 13.9357559,6.00842188 L13.3654395,5.43810547 C12.4579941,4.53058008 11.251377,4.0308125 9.96796484,4.0308125 C8.68455273,4.0308125 7.47801563,4.53058008 6.57049023,5.43810547 L5.43802539,6.57041016 C3.56467773,8.44383789 3.56467773,11.4919316 5.43810547,13.3653594 L6.0083418,13.9355957 C6.1584082,14.0857422 6.19956836,14.3169277 6.11092188,14.5305762 L6.10123242,14.553959 C6.01586914,14.7608008 5.82344141,14.8944512 5.61131445,14.8944512 L4.8046875,14.8944512 C2.15538281,14.8944512 0,17.049834 0,19.6991387 L0,21.3007012 C0,23.9500059 2.15538281,26.1053887 4.8046875,26.1053887 L5.61123438,26.1053887 C5.82344141,26.1053887 6.01570898,26.2390391 6.09907031,26.4406758 L6.11332422,26.4752695 C6.19956836,26.6829922 6.15832812,26.9141777 6.00826172,27.0642441 L5.43802539,27.6345605 C4.5305,28.5420859 4.03073242,29.748623 4.03073242,31.0320352 C4.03073242,32.3153672 4.5305,33.5219043 5.43794531,34.4294297 L6.57041016,35.5618945 C7.47793555,36.4694199 8.68455273,36.9691875 9.96788477,36.9691875 C11.251377,36.9691875 12.4579141,36.4694199 13.3653594,35.5618945 L13.9355957,34.9916582 C14.085582,34.8415117 14.3170879,34.8003516 14.5239297,34.8862754 L14.5541191,34.8987676 C14.7609609,34.9842109 14.8945313,35.1764785 14.8945313,35.3886055 L14.8945313,36.1953125 C14.8945313,38.8446172 17.0499141,41 19.6992188,41 L21.3007812,41 C23.9500859,41 26.1054688,38.8446172 26.1054688,36.1953125 L26.1054688,35.3886055 C26.1054688,35.1764785 26.2390391,34.9842109 26.4441191,34.8995684 L26.4754297,34.8865957 C26.6830723,34.8004316 26.9143379,34.8415918 27.0643242,34.9915781 L27.6346406,35.5618945 C28.5420859,36.4694199 29.7487031,36.9691875 31.0321152,36.9691875 C32.3155273,36.9691875 33.5220645,36.4694199 34.4295898,35.5618945 L35.5620547,34.4294297 C36.4695,33.5219844 36.9692676,32.3153672 36.9692676,31.0320352 C36.9692676,29.748623 36.4695,28.5420859 35.5620547,27.6346406 L34.9917383,27.0643242 C34.8415918,26.9142578 34.8004316,26.6830723 34.8866758,26.4753496 L34.8987676,26.446041 C34.9842109,26.2391992 35.1765586,26.1055488 35.3886855,26.1055488 L36.1953125,26.1055488 C38.8446172,26.1055488 41,23.950166 41,21.3008613 L41,19.6992988 C41,17.0499941 38.8446172,14.8946113 36.1953125,14.8946113 Z M37.796875,21.3007812 C37.796875,22.1838828 37.0784141,22.9023438 36.1953125,22.9023438 L35.3886855,22.9023438 C33.8748086,22.9023438 32.5204473,23.8133125 31.9381992,25.223248 L31.9277891,25.2483926 C31.3433789,26.6576875 31.6568047,28.2593301 32.7266484,29.3292539 L33.2970449,29.8995703 C33.5995,30.2020254 33.7660625,30.6042578 33.7660625,31.0320352 C33.7660625,31.4598125 33.5995,31.8619648 33.2969648,32.1645 L32.1645801,33.2969648 C31.8619648,33.5994199 31.4598125,33.7660625 31.0320352,33.7660625 C30.6041777,33.7660625 30.2020254,33.5995 29.8995703,33.2969648 L29.3291738,32.7265684 C28.2586895,31.6563242 26.6560859,31.3431387 25.2459102,31.9288301 L25.2233281,31.9381992 C23.8133926,32.5203672 22.9023438,33.8747285 22.9023438,35.3886055 L22.9023438,36.1953125 C22.9023438,37.0784141 22.1838828,37.796875 21.3007812,37.796875 L19.6992188,37.796875 C18.8161172,37.796875 18.0976562,37.0784141 18.0976562,36.1953125 L18.0976562,35.3886055 C18.0976562,33.8747285 17.1866074,32.5203672 15.7749902,31.9374785 L15.7533691,31.9285098 C15.281709,31.7325586 14.788668,31.6373457 14.3009922,31.6373457 C13.331166,31.6373457 12.383041,32.0144336 11.6707461,32.7266484 L11.1004297,33.2970449 C10.7978945,33.5995 10.3958223,33.7660625 9.96796484,33.7660625 C9.5401875,33.7660625 9.13795508,33.5994199 8.8355,33.2969648 L7.70303516,32.1645 C7.4005,31.8619648 7.2339375,31.4598125 7.2339375,31.0320352 C7.2339375,30.6042578 7.4005,30.2020254 7.70303516,29.8995703 L8.27335156,29.3292539 C9.34327539,28.2593301 9.65670117,26.6576875 9.07221094,25.2483926 L9.06180078,25.223248 C8.47947266,23.8133125 7.12511133,22.9023438 5.61131445,22.9023438 L4.8046875,22.9023438 C3.92158594,22.9023438 3.203125,22.1838828 3.203125,21.3007812 L3.203125,19.6992188 C3.203125,18.8161172 3.92158594,18.0976562 4.8046875,18.0976562 L5.61131445,18.0976562 C7.12519141,18.0976562 8.47955273,17.1866875 9.06396289,15.771627 L9.07141016,15.7534492 C9.65694141,14.3437539 9.34367578,12.7412305 8.27327148,11.6707461 L7.70303516,11.1005098 C7.07850586,10.4759805 7.07850586,9.45994922 7.70303516,8.8355 L8.83541992,7.70303516 C9.13803516,7.40058008 9.5401875,7.2339375 9.96796484,7.2339375 C10.3958223,7.2339375 10.7979746,7.4005 11.1004297,7.70303516 L11.6708262,8.27343164 C12.7413906,9.34375586 14.3439941,9.65702148 15.7540898,9.07116992 L15.7766719,9.06180078 C17.1866074,8.47963281 18.0976562,7.12527148 18.0976562,5.61139453 L18.0976562,4.8046875 C18.0976562,3.92158594 18.8161172,3.203125 19.6992188,3.203125 L21.3007812,3.203125 C22.1838828,3.203125 22.9023438,3.92158594 22.9023438,4.8046875 L22.9023438,5.61139453 C22.9023438,7.12527148 23.8133926,8.47963281 25.2250098,9.06244141 L25.2466309,9.07141016 C26.6560859,9.65678125 28.2586895,9.3435957 29.3292539,8.27327148 L29.8995703,7.702875 C30.2021055,7.40041992 30.6041777,7.23385742 31.0320352,7.23385742 C31.4598125,7.23385742 31.8620449,7.4005 32.1645,7.70295508 L33.2969648,8.83541992 C33.9214941,9.45986914 33.9214941,10.4759004 33.2970449,11.1003496 L32.7266484,11.6707461 C31.6563242,12.7412305 31.3430586,14.3436738 31.9261875,15.7475234 L31.9381992,15.776752 C32.5205273,17.1866875 33.8748887,18.0976562 35.3886855,18.0976562 L36.1953125,18.0976562 C37.0784141,18.0976562 37.796875,18.8161172 37.796875,19.6992188 L37.796875,21.3007812 Z" id="Shape"></path>
            </g>
        </g>
    </g>
</svg>