<?xml version="1.0" encoding="UTF-8"?>
<svg width="41px" height="41px" viewBox="0 0 41 41" version="1.1" xmlns="http://www.w3.org/2000/svg" xmlns:xlink="http://www.w3.org/1999/xlink">
    <!-- Generator: Sketch 49 (51002) - http://www.bohemiancoding.com/sketch -->
    <title>puzzle</title>
    <desc>Created with Sketch.</desc>
    <defs>
        <linearGradient x1="98.048868%" y1="50%" x2="0%" y2="50%" id="linearGradient-1">
            <stop stop-color="#A39AF1" offset="0%"></stop>
            <stop stop-color="#2B95D8" offset="100%"></stop>
        </linearGradient>
    </defs>
    <g id="Main-1920" stroke="none" stroke-width="1" fill="none" fill-rule="evenodd">
        <g transform="translate(-937.000000, -2704.000000)" fill="url(#linearGradient-1)" fill-rule="nonzero" id="puzzle">
            <g transform="translate(937.000000, 2704.000000)">
                <path d="M39.3984375,28.0673828 C40.2829805,28.0673828 41,27.3503633 41,26.4658203 L41,16.6962891 C41,13.1638828 38.1261563,10.2900391 34.59375,10.2900391 L31.0055293,10.2900391 C31.4421953,8.62897852 31.7109375,7.06521289 31.7109375,6.12597656 C31.7109375,2.77014258 28.9807539,0.0400390625 25.625,0.0400390625 C22.2692461,0.0400390625 19.5390625,2.77014258 19.5390625,6.12597656 C19.5390625,7.06521289 19.8078848,8.62905859 20.2444707,10.2900391 L16.65625,10.2900391 C13.1238438,10.2900391 10.25,13.1638828 10.25,16.6962891 L10.25,19.2434941 C8.58893945,18.8068281 7.02517383,18.5380859 6.0859375,18.5380859 C2.73018359,18.5380859 0,21.2681895 0,24.6240234 C0,27.9798574 2.73018359,30.7099609 6.0859375,30.7099609 C6.97232227,30.7099609 8.52743945,30.5123281 10.25,30.0783848 L10.25,34.5537109 C10.25,38.0861172 13.1238438,40.9599609 16.65625,40.9599609 L21.3007812,40.9599609 C22.0665684,40.9599609 22.7681328,40.6079375 23.2255391,39.9939785 C23.6774199,39.3875469 23.8180371,38.592291 23.6015059,37.866543 C22.9754551,35.7687363 22.7421875,34.1317793 22.7421875,33.5927734 C22.7421875,32.0031426 24.0353691,30.7099609 25.625,30.7099609 C27.2146309,30.7099609 28.5078125,32.0031426 28.5078125,33.5927734 C28.5078125,34.1317793 28.2745449,35.7687363 27.6484941,37.866623 C27.4319629,38.5922109 27.5725,39.3875469 28.0244609,39.9939785 C28.4818672,40.6079375 29.1834316,40.9599609 29.9492188,40.9599609 L34.59375,40.9599609 C38.1261563,40.9599609 41,38.0861172 41,34.5537109 C41,33.669168 40.2829805,32.9521484 39.3984375,32.9521484 C38.5138945,32.9521484 37.796875,33.669168 37.796875,34.5537109 C37.796875,36.3199141 36.3599531,37.7568359 34.59375,37.7568359 L31.0055293,37.7568359 C31.4421953,36.0957754 31.7109375,34.5320098 31.7109375,33.5927734 C31.7109375,30.2369395 28.9807539,27.5068359 25.625,27.5068359 C22.2692461,27.5068359 19.5390625,30.2369395 19.5390625,33.5927734 C19.5390625,34.5320098 19.8078848,36.0958555 20.2444707,37.7568359 L16.65625,37.7568359 C14.8900469,37.7568359 13.453125,36.3199141 13.453125,34.5537109 L13.453125,29.0279199 C13.453125,28.2621328 13.1011016,27.5604883 12.4870625,27.103082 C11.8806309,26.6511211 11.085375,26.5105039 10.3597871,26.7271953 C8.44287695,27.2991934 6.75362891,27.5068359 6.0859375,27.5068359 C4.49630664,27.5068359 3.203125,26.2136543 3.203125,24.6240234 C3.203125,23.0343926 4.49630664,21.7412109 6.0859375,21.7412109 C6.62486328,21.7412109 8.26182031,21.9745586 10.3598672,22.6006094 C11.0851348,22.8170605 11.8806309,22.6766035 12.4871426,22.2246426 C13.1011016,21.7672363 13.453125,21.0655918 13.453125,20.2998047 L13.453125,16.6962891 C13.453125,14.9300859 14.8900469,13.4931641 16.65625,13.4931641 L21.3007812,13.4931641 C22.0665684,13.4931641 22.7681328,13.1411406 23.2255391,12.5271816 C23.6774199,11.92075 23.8180371,11.1254941 23.6015059,10.3997461 C22.9754551,8.30193945 22.7421875,6.66498242 22.7421875,6.12597656 C22.7421875,4.5363457 24.0353691,3.24316406 25.625,3.24316406 C27.2146309,3.24316406 28.5078125,4.5363457 28.5078125,6.12597656 C28.5078125,6.66498242 28.2745449,8.30193945 27.6484941,10.3998262 C27.4319629,11.1254141 27.5725,11.92075 28.0244609,12.5271816 C28.4818672,13.1411406 29.1834316,13.4931641 29.9492188,13.4931641 L34.59375,13.4931641 C36.3599531,13.4931641 37.796875,14.9300859 37.796875,16.6962891 L37.796875,26.4658203 C37.796875,27.3503633 38.5138945,28.0673828 39.3984375,28.0673828 Z" id="Shape"></path>
            </g>
        </g>
    </g>
</svg>