<?xml version="1.0" encoding="UTF-8"?>
<svg width="37px" height="42px" viewBox="0 0 37 42" version="1.1" xmlns="http://www.w3.org/2000/svg" xmlns:xlink="http://www.w3.org/1999/xlink">
    <!-- Generator: Sketch 49 (51002) - http://www.bohemiancoding.com/sketch -->
    <title>shield</title>
    <desc>Created with Sketch.</desc>
    <defs>
        <linearGradient x1="98.048868%" y1="50%" x2="0%" y2="50%" id="linearGradient-1">
            <stop stop-color="#A39AF1" offset="0%"></stop>
            <stop stop-color="#2B95D8" offset="100%"></stop>
        </linearGradient>
    </defs>
    <g id="Main-1920" stroke="none" stroke-width="1" fill="none" fill-rule="evenodd">
        <g transform="translate(-552.000000, -2705.000000)" fill="url(#linearGradient-1)" fill-rule="nonzero" id="shield">
            <g transform="translate(552.000000, 2705.000000)">
                <path d="M35.9842344,7.59108984 L19.0863839,0.140847656 C18.658654,-0.0477421875 18.1703036,-0.0470039063 17.7432344,0.143308594 L1.01031473,7.59355078 C0.417571429,7.85752734 0.0360915179,8.44249219 0.0360915179,9.08766797 L0.0360915179,22.0233398 C0.0360915179,26.9120742 1.98115179,31.9095 5.37259821,35.734207 C7.07847991,37.6579219 9.04501339,39.1802578 11.2177723,40.2588047 C13.5449732,41.4142148 15.995067,42 18.5,42 C22.0074844,42 25.4212299,40.8724805 28.3723929,38.7390937 C29.1085938,38.206957 29.2710469,37.1828789 28.7352076,36.4516523 C28.1994509,35.7204258 27.1683237,35.5592344 26.4322054,36.0912891 C24.0485134,37.8144375 21.3056406,38.7251484 18.5000826,38.7251484 C10.5623438,38.7251484 3.33330357,30.7645078 3.33330357,22.0234219 L3.33330357,10.148168 L18.4209621,3.43046484 L33.6668616,10.1524336 L33.6668616,22.0234219 C33.6668616,25.0386445 32.7948013,28.090125 31.1448326,30.8478516 C30.6796897,31.6252617 30.9371205,32.6299805 31.7198192,33.0919805 C32.502683,33.5538984 33.514154,33.298207 33.9792969,32.5207969 C35.9319554,29.2571836 36.9639911,25.6273008 36.9639911,22.0235039 L36.9639911,9.08775 C36.9639085,8.44035937 36.5799509,7.85375391 35.9842344,7.59108984 Z" id="Shape"></path>
            </g>
        </g>
    </g>
</svg>