<?xml version="1.0" encoding="UTF-8"?>
<svg width="41px" height="35px" viewBox="0 0 41 35" version="1.1" xmlns="http://www.w3.org/2000/svg" xmlns:xlink="http://www.w3.org/1999/xlink">
    <!-- Generator: Sketch 49 (51002) - http://www.bohemiancoding.com/sketch -->
    <title>heart</title>
    <desc>Created with Sketch.</desc>
    <defs>
        <linearGradient x1="98.048868%" y1="50%" x2="0%" y2="50%" id="linearGradient-1">
            <stop stop-color="#A39AF1" offset="0%"></stop>
            <stop stop-color="#2B95D8" offset="100%"></stop>
        </linearGradient>
    </defs>
    <g id="Main-1920" stroke="none" stroke-width="1" fill="none" fill-rule="evenodd">
        <g transform="translate(-550.000000, -2477.000000)" fill="url(#linearGradient-1)" fill-rule="nonzero" id="heart">
            <g transform="translate(550.000000, 2477.000000)">
                <path d="M37.7704492,3.19554103 C35.756084,1.13488545 32.9784941,0 29.9492188,0 C24.6531719,0 21.9149004,2.75287989 20.5503691,5.06220878 C20.5333926,5.09084585 20.5165762,5.11956381 20.5,5.14820088 C20.4834238,5.11956381 20.4666074,5.09084585 20.4496309,5.06220878 C19.0850996,2.75287989 16.3468281,0 11.0507812,0 C8.02150586,0 5.24391602,1.13488545 3.22955078,3.19562193 C1.11676953,5.35707352 0,8.3158329 0,11.7520386 C0,19.0486668 6.42074414,23.886471 12.0855508,28.1547696 C14.9082246,30.281517 17.5743457,32.2903993 19.2523828,34.3965183 C19.5563594,34.7781032 20.015127,35 20.5,35 C20.984873,35 21.4436406,34.7781032 21.7476973,34.39668 C22.6107793,33.3133251 23.8105098,32.1614516 25.523541,30.771583 C26.2130937,30.2120276 26.3231211,29.1936319 25.7692207,28.4969583 C25.2154004,27.8004465 24.2072969,27.6891341 23.5176641,28.2486895 C22.309125,29.2293069 21.3206406,30.1161662 20.5007207,30.9589374 C18.6903145,29.0945347 16.3988789,27.3679783 14.0006191,25.5610115 C8.69224023,21.5612866 3.203125,17.4253333 3.203125,11.7520386 C3.203125,6.73780093 6.43019336,3.23582708 11.0507812,3.23582708 C14.0552324,3.23582708 16.2737168,4.37766956 17.6444141,6.62956252 C18.7326758,8.41711429 18.9019609,10.2777958 18.903082,10.2892829 C18.9673047,11.132135 19.6628633,11.7865001 20.4995996,11.7865001 C21.3364961,11.7865001 22.0319746,11.1392538 22.0961973,10.2964018 C22.0978789,10.2777958 22.2671641,8.41711429 23.3554258,6.62956252 C24.7262832,4.37766956 26.9447676,3.23582708 29.9492188,3.23582708 C34.5698066,3.23582708 37.796875,6.73780093 37.796875,11.7520386 C37.796875,16.4470619 34.0130234,20.0872055 29.9239941,23.3214956 C29.2276348,23.8723143 29.1050352,24.8892538 29.6503672,25.5928035 C30.195459,26.2962723 31.2022012,26.4201236 31.8987207,25.869224 C33.8438184,24.3306692 36.3091836,22.2515694 38.1226328,19.810057 C40.0587617,17.2033556 41,14.5675317 41,11.7520386 C41,8.3158329 39.8832305,5.35707352 37.7704492,3.19554103 Z" id="Shape"></path>
            </g>
        </g>
    </g>
</svg>