<?xml version="1.0" encoding="UTF-8"?>
<svg width="41px" height="41px" viewBox="0 0 41 41" version="1.1" xmlns="http://www.w3.org/2000/svg" xmlns:xlink="http://www.w3.org/1999/xlink">
    <!-- Generator: Sketch 49 (51002) - http://www.bohemiancoding.com/sketch -->
    <title>piggy-bank</title>
    <desc>Created with Sketch.</desc>
    <defs>
        <linearGradient x1="98.048868%" y1="50%" x2="0%" y2="50%" id="linearGradient-1">
            <stop stop-color="#A39AF1" offset="0%"></stop>
            <stop stop-color="#2B95D8" offset="100%"></stop>
        </linearGradient>
    </defs>
    <g id="Main-1920" stroke="none" stroke-width="1" fill="none" fill-rule="evenodd">
        <g transform="translate(-942.000000, -2467.000000)" fill-rule="nonzero" id="piggy-bank">
            <g transform="translate(942.000000, 2467.000000)">
                <circle id="Oval" fill="#6998E5" cx="10.6546053" cy="20.6348684" r="1.61842105"></circle>
                <path d="M39.8504223,14.914973 C39.2550222,14.2618584 38.2421844,14.2142121 37.5879982,14.8087097 C36.933812,15.4032074 36.8861736,16.4145902 37.4814935,17.0677048 C37.6938614,17.3006512 37.797078,17.6459467 37.797078,18.1235308 C37.797078,18.9546584 37.4782053,19.242378 37.16631,19.414305 C36.8099842,19.6105757 36.3789126,19.6646283 36.235035,19.6693529 L35.1496168,19.6693529 C34.5044129,16.6452944 32.9080445,14.1274878 30.4396685,12.2824149 C29.3172784,11.4435198 28.0332866,10.7570127 26.6126351,10.2301007 C27.2175789,9.19733712 27.5470379,8.01154488 27.5470379,6.796284 C27.5469577,3.04880254 24.4935273,0 20.7403575,0 C16.9871876,0 13.9336771,3.04880254 13.9336771,6.79636408 C13.9336771,7.19595236 13.969045,7.59257776 14.0381768,7.98191609 C12.2217414,6.44418186 9.97423448,5.60112265 7.41940354,5.51800188 C6.84196812,5.4999043 6.29990062,5.79194808 5.99955401,6.28426647 C5.69920739,6.77658486 5.68741808,7.392143 5.96875745,7.8955922 C5.98134875,7.91801399 7.10309725,9.94638498 7.52807368,12.3632134 C5.91125451,13.8604283 5.14783676,15.5482283 4.57128354,16.8227468 C4.35578785,17.2992898 4.06698994,17.9378303 3.88108781,18.1503568 L1.60158129,18.1503568 C0.717062512,18.1503568 0,18.8662525 0,19.7495107 L0,26.1460463 C0,27.0292245 0.716982312,27.7452002 1.60158129,27.7452002 L3.27429943,27.7452002 C4.16306877,29.8152117 5.56543485,31.6316167 7.39831111,33.0878317 L6.86723092,34.3739614 C6.378095,35.5587127 6.38018019,36.8626998 6.87332607,38.0457694 C7.36647196,39.228919 8.29141123,40.1494135 9.47788061,40.6378081 C10.0751253,40.8836469 10.6937832,41 11.3029775,41 C13.1920735,40.9998398 14.9876571,39.880352 15.751155,38.0311151 L16.3254627,36.6401635 C17.1269751,36.733294 17.9428433,36.7802997 18.7636837,36.7802997 L18.8731559,36.7802997 C20.1659696,36.7802997 21.4206887,36.6897317 22.6190276,36.5102773 L23.2469084,38.031035 C24.2566986,40.4765313 27.0707339,41.6460678 29.5201828,40.6378081 C30.7066522,40.1494135 31.6316717,39.228919 32.1247374,38.0457694 C32.6178832,36.8626998 32.6200486,35.5587927 32.1308325,34.3739614 L30.9678615,31.5574646 C30.6307034,30.7408311 29.6946966,30.3518932 28.8766631,30.6885403 C28.0589504,31.0251874 27.6693419,31.9599357 28.0064198,32.7764892 L29.1693908,35.592986 C29.3324361,35.9878497 29.3317143,36.422512 29.1673858,36.8169753 C29.0029771,37.2113585 28.6946908,37.5182167 28.2991475,37.6810149 C27.4826378,38.0169413 26.5447062,37.6272827 26.2080293,36.8120906 L25.0874036,34.0980934 C24.7926709,33.3841196 24.0290126,32.9826094 23.2727326,33.1435658 C21.9062156,33.4346487 20.4258156,33.5820719 18.8728351,33.5820719 L18.763363,33.5820719 C17.6894935,33.5820719 16.6286163,33.4877403 15.609924,33.3016394 C14.8665561,33.1661478 14.1291229,33.5674978 13.8410468,34.2652158 L12.7894727,36.8121707 C12.4527958,37.6272026 11.5147841,38.0170214 10.6983545,37.6810149 C10.3028113,37.5182167 9.99452491,37.2113585 9.83011622,36.8169753 C9.66570752,36.422512 9.66498573,35.9879297 9.82811123,35.592986 L10.8390242,33.144767 C11.1307895,32.4381604 10.8809685,31.6242495 10.2429023,31.2021594 C8.13927303,29.8105671 6.63794094,27.8897407 5.90122959,25.6475619 C5.6857339,24.9909239 5.07188797,24.5469725 4.37976746,24.5469725 L3.20316259,24.5469725 L3.20316259,21.3486647 L3.94973847,21.3486647 C6.0386913,21.3486647 6.84357211,19.5690954 7.49037998,18.139226 C8.06524902,16.8683111 8.71678865,15.4278714 10.2092988,14.2843602 C10.6491923,13.9472326 10.8832141,13.4071078 10.8278765,12.8562525 C10.6962693,11.5460194 10.3717827,10.2985672 10.0178629,9.25203027 C11.295519,9.75844235 12.3803758,10.6177574 13.2595212,11.8233288 C13.6185738,12.3158074 14.2265651,12.5618865 14.8276594,12.4577052 C15.9935977,12.2559892 17.3178496,12.1536498 18.7635234,12.1536498 L18.8729955,12.1536498 C22.0160887,12.1536498 32.2713418,12.9262405 32.2713418,22.8679009 C32.2713418,23.7622099 32.1852077,24.6181616 32.015185,25.4120531 C31.8302453,26.2757724 32.3816159,27.1255581 33.2465661,27.3101375 C34.1109548,27.4940762 34.9625918,26.9442619 35.1475316,26.0805427 C35.3644709,25.0673181 35.4745044,23.9864278 35.4745044,22.8678208 L36.2485886,22.8678208 C36.4432325,22.8678208 37.4683408,22.8406745 38.5397241,22.3059148 C40.1262279,21.5139453 41,20.028662 41,18.123771 C41.0001604,16.849733 40.6025319,15.7402549 39.8504223,14.914973 Z M23.2947072,9.33435026 C21.904371,9.08314616 20.4252542,8.95518182 18.8732361,8.95518182 L18.7637639,8.95518182 C18.46045,8.95518182 18.1613063,8.95934586 17.8665737,8.9675138 C17.3946806,8.34522912 17.1368397,7.5816071 17.1368397,6.79636408 C17.1368397,4.8123562 18.753338,3.19830782 20.7403575,3.19830782 C22.7273769,3.19830782 24.3438753,4.8123562 24.3438753,6.79636408 C24.3438753,7.76106148 23.972472,8.65617126 23.2947072,9.33435026 Z" id="Shape" fill="url(#linearGradient-1)"></path>
            </g>
        </g>
    </g>
</svg>