<?xml version="1.0" encoding="UTF-8"?>
<svg width="858px" height="293px" viewBox="0 0 858 293" version="1.1" xmlns="http://www.w3.org/2000/svg" xmlns:xlink="http://www.w3.org/1999/xlink">
    <!-- Generator: Sketch 49 (51002) - http://www.bohemiancoding.com/sketch -->
    <title>Group 9</title>
    <desc>Created with Sketch.</desc>
    <defs>
        <linearGradient x1="98.048868%" y1="50%" x2="0%" y2="50%" id="linearGradient-1">
            <stop stop-color="#A39AF1" offset="0%"></stop>
            <stop stop-color="#2B95D8" offset="100%"></stop>
        </linearGradient>
        <linearGradient x1="50%" y1="8.8793313%" x2="66.4577249%" y2="94.9456243%" id="linearGradient-2">
            <stop stop-color="#A39AF1" offset="0%"></stop>
            <stop stop-color="#2B95D8" offset="100%"></stop>
        </linearGradient>
        <path d="M278.406864,54.1804694 C275.683722,53.2941667 273.200856,54.0984043 270.787405,55.3567352 C269.682129,56.1609728 268.448706,56.8339063 267.920096,58.2399544 C266.574543,60.1165088 264.449424,60.0672697 262.5806,60.0617987 C256.493576,60.0344437 250.385193,60.6088992 244.319527,59.6186474 C243.849651,59.5311113 243.310362,59.7718355 242.9099,59.3669812 C240.512467,56.9487974 237.992225,54.6509757 235.893804,51.9373577 C233.031834,48.9228344 230.052396,46.0177313 227.206445,42.981324 C222.566424,38.0300653 214.445051,39.03673 210.904966,44.294365 C209.724938,46.0450863 209.48466,47.9818217 209.030803,49.8966732 C208.833242,50.7337368 208.550249,51.07841 207.695929,51.089352 C205.417471,51.1214074 203.251723,52.110306 201.705016,53.8248541 C201.164947,54.4032673 200.583071,54.9391217 199.96434,55.4278583 C199.065897,56.9295895 198.482204,58.6064202 198.250363,60.351762 C198.148912,61.3201297 197.716413,61.692158 196.782001,61.8508171 C195.425832,62.0382012 194.11621,62.4854938 192.921546,63.1693291 C189.482911,65.2756656 187.582051,68.3120729 187.448564,72.470036 C187.223716,72.8558904 186.819236,73.0941951 186.380665,73.0992015 C183.616555,73.3267673 181.023391,74.5611519 179.070896,76.5787601 C178.595681,77.5635408 178.296669,78.6249156 177.75738,79.5878123 C177.296187,80.2287222 177.010464,80.984234 176.929758,81.776214 C176.881703,85.3925477 177.154017,88.7025051 180.133455,91.4598912 C182.696413,93.861662 184.757458,96.8378882 187.37915,99.234188 C188.142698,99.9344765 188.142698,100.574584 187.453903,101.274873 C186.097671,102.653566 184.826872,104.125266 183.374529,105.394539 C182.141106,106.488739 180.704781,107.123376 179.038859,106.696638 C175.584205,105.815806 174.484269,102.002516 176.796271,98.9442248 C177.458368,98.0688641 178.307348,97.3685756 179.001482,96.526041 C179.695617,95.6835063 179.626203,93.5169887 178.825279,92.6142731 C177.693306,91.3395291 176.518617,91.164457 175.178404,92.0671726 C174.100312,92.8465775 173.079506,93.7060103 172.124213,94.6385446 C170.241931,96.2915905 167.410033,96.0764727 165.786232,94.1570962 C164.232439,92.2914838 164.32855,89.1620695 166.005151,87.5918913 C166.731322,86.9189578 167.334685,86.1256622 168.034159,85.4034897 C169.007755,84.3579991 169.051578,82.7273004 168.13561,81.6284968 C166.880828,80.2990429 165.407128,80.1786808 164.136328,81.2892946 C163.180979,82.2246007 162.162144,83.0893617 161.087476,83.8770795 C158.981407,85.277383 156.18097,84.8031003 154.626687,82.7828787 C153.558788,81.4370117 153.516072,77.83162 155.240729,76.7976002 C156.383381,76.1137247 157.125571,74.9155748 157.787668,73.7283669 C158.369673,72.502862 157.86776,70.7904378 156.639677,69.794715 C155.822734,69.1327235 154.375731,69.2038466 153.366566,70.0135552 C152.437494,70.7521407 151.700644,71.7095664 150.792929,72.475507 C147.984355,74.8280388 144.198653,73.6681859 143.349673,70.1612723 C142.895816,68.2737759 143.659364,66.6981267 144.951522,65.4179117 C148.769261,61.6374479 152.239933,57.5177818 156.030974,53.704492 C159.45893,50.2522884 162.598553,46.4937086 166.213391,43.2275192 C168.082215,41.2962547 170.105883,39.5291204 171.883935,37.4993779 C172.417885,36.9522775 172.743594,36.0276778 173.774117,36.2136919 L174.105165,36.4270611 C174.639115,36.8975674 175.11433,37.4173128 175.621582,37.9151742 C176.200539,38.2813573 176.737812,38.7125871 177.223431,39.2008602 C178.980124,40.7108573 180.549936,42.4396946 182.354685,43.8895107 C184.853569,45.9028402 187.646125,47.051751 190.897878,46.8164979 C192.448777,46.6352181 193.971587,46.2566257 195.431109,45.689471 C195.83028,45.2533202 196.274252,44.8626138 196.755304,44.5241471 C200.28471,42.5436437 201.737053,39.1680341 202.570014,35.3875703 C202.158873,34.4629706 202.473903,33.5000739 202.409829,32.5590612 C202.349656,30.4045737 201.645113,28.3210069 200.3915,26.5901958 C198.501319,24.0625919 195.970398,22.2133925 193.8346,19.9374548 C191.93374,17.9241253 189.952787,15.9928608 187.918439,14.1108354 C186.973349,13.2354748 187.074799,12.8087365 188.180075,12.4695342 C189.105129,12.1399039 190.087469,12.0131552 191.063402,12.0975059 C192.430313,12.0975059 193.73315,11.5832315 195.126758,11.6051156 C208.657039,11.8458397 222.197998,11.1619642 235.706921,11.9716728 C237.431578,11.7473617 238.584909,12.6555483 239.535339,13.9795313 C239.615432,14.0998934 239.700864,14.2147845 239.786296,14.3296756 C240.010554,14.827537 240.549843,14.9478991 240.90759,15.2761593 C241.350768,15.7357236 241.820643,16.167933 242.290519,16.5892003 C243.988478,18.1101394 245.584987,19.8116217 247.907668,20.3532511 C248.153284,20.3532511 248.393562,20.4079611 248.633839,20.4407872 C249.302368,20.5874795 249.984517,20.6590256 250.668187,20.6541563 C256.392126,20.6541563 262.116064,20.6541563 267.840003,20.6541563 C268.525224,20.6742618 269.209858,20.5969316 269.874351,20.4243741 C271.776439,20.2018304 273.569554,19.3994502 275.021624,18.1210814 C276.559399,16.8627505 277.856896,15.3855794 279.261183,13.9850023 C280.259045,12.8716946 281.595161,12.1370498 283.052225,11.9005498 C284.05572,11.6826277 285.081123,11.5889502 286.106416,11.6215286 C295.311706,11.6215286 304.518775,11.6215286 313.727625,11.6215286 C314.562999,11.5521297 315.402585,11.6851991 316.178453,12.0099699 C316.606226,12.1736063 316.942099,12.5217533 317.096846,12.9619246 C317.465271,14.2257265 318.522491,14.920544 319.339434,15.8177887 C319.691851,16.3199489 320.333848,16.5098319 320.893227,16.2773531 C322.0252,16.7642724 323.141155,17.3277858 324.427973,17.2019527 C324.890937,17.4182601 325.422691,17.4182601 325.885655,17.2019527 C331.994038,16.8353955 335.66761,9.43859794 332.367802,4.11531097 C330.727581,1.26617118 327.602835,-0.325032169 324.395936,0.0558259384 C320.65829,0.340318151 318.346288,2.55607481 317.064809,6.04657541 C316.445428,6.46784273 315.740614,6.34200963 315.062499,6.34200963 C304.57573,6.34200963 294.094301,6.37483566 283.607532,6.34200963 C281.089188,6.30259211 278.645505,7.2184044 276.746281,8.91338155 C275.418618,10.0966047 274.14978,11.3473923 272.944561,12.6610194 C271.412125,14.2640235 269.623395,15.3582244 267.396825,15.3965214 C262.105385,15.4402894 256.813946,15.4567024 251.522506,15.3965214 C249.797849,15.3965214 248.115908,14.9533701 246.802392,13.6348581 C245.366068,12.195984 243.956441,10.7297549 242.498759,9.31276485 C240.629936,7.49639149 238.478119,6.36936465 235.808372,6.37483566 C221.845592,6.37483566 207.877472,6.45142971 193.914692,6.34748064 C189.70717,6.31465461 185.739925,7.00400113 181.996939,8.94073657 C181.402776,9.28105531 180.673879,9.25791349 180.101418,8.88055553 C177.111529,7.25006106 173.781105,6.38474767 170.394216,6.35842264 C151.52978,6.41860369 132.665343,6.35842264 113.795567,6.40219068 C112.615539,6.40219068 111.777238,6.21617654 111.23261,4.9578456 C109.812304,1.67524315 107.174593,0.121477987 103.757316,0.088651963 C100.340039,0.0558259384 97.7770817,1.68618516 96.1645542,4.8320125 C93.3933562,10.2483065 97.4139961,17.1636557 103.340836,17.2457208 C107.478944,17.3059018 110.164711,15.2378623 111.798596,11.4956955 C112.515907,11.664408 113.254442,11.7179324 113.987789,11.6543546 C127.870477,11.6543546 141.705109,11.6215286 155.561099,11.6543546 C160.83652,11.6543546 166.133299,11.2495003 171.392702,12.1193899 C174.089147,12.0482669 176.459883,13.0713447 178.739847,14.3953276 C180.731479,15.5551805 182.194501,17.3441988 183.860423,18.881551 C187.678162,22.4048776 191.293,26.1415734 194.950555,29.8235592 C197.444099,32.340221 196.79802,37.0562266 193.946729,39.1242661 C191.18621,41.1375956 188.308222,40.9734655 185.504988,38.4568036 C182.376043,35.6501785 179.193704,32.8927925 176.267661,29.8727982 C174.532325,28.0837799 172.15625,28.3682721 170.602456,29.9384503 C165.481881,35.1030781 160.537508,40.4482491 155.427611,45.623819 C151.043886,50.0608033 146.782968,54.6236207 142.399243,59.071547 C142.282627,59.2442863 142.146406,59.4022273 141.993441,59.5420534 C141.700195,59.752822 141.334238,59.8282127 140.984277,59.7499515 C136.712681,60.401001 132.441084,60.0617987 128.169488,60.0946248 C127.620469,60.1167922 127.093639,59.8712418 126.749183,59.4326333 C126.076014,59.1426766 125.471477,58.7079588 124.97647,58.1578893 C123.668294,56.8284353 122.413512,55.4223873 121.051941,54.1640563 C119.380679,52.5938782 117.517195,51.3793153 115.135781,51.3574312 C113.985597,51.1454433 112.817364,51.0537888 111.64909,51.083881 C106.624625,51.083881 101.6055,51.083881 96.5810348,51.083881 C95.8989971,51.0297065 95.212932,51.094453 94.5520266,51.2753662 C92.4696235,51.9318867 90.2804305,52.369567 88.614508,53.9671002 C87.1514863,55.3567352 85.7098226,56.7682543 84.2628194,58.1797733 C83.4572944,59.0649775 82.3362016,59.5781446 81.1552332,59.6022344 C80.6212837,59.6514734 80.0873342,59.7225965 79.5533847,59.7827775 C74.5502777,60.3298779 69.5578497,60.466653 64.6027982,59.4271623 C63.8926453,59.3888652 63.673726,58.8034678 63.3640353,58.2891934 C62.0865531,56.1870348 60.0796296,54.6584531 57.7468864,54.0108682 C54.3830044,53.0096745 50.2715931,54.6838017 48.2052085,57.8405711 C46.0694104,61.1231735 45.9038861,64.5644351 48.0450236,68.0385227 C51.7826702,74.0566272 59.9467584,73.9526781 63.695084,67.8306245 C64.2917378,66.6611979 65.5138149,65.9715311 66.7973307,66.0799032 C70.5670143,66.1400843 74.3473769,66.1947943 78.1170605,66.0799032 C80.2955745,66.0033092 82.522144,66.0799032 84.6205656,65.2318976 C84.9357894,65.1969059 85.2438051,65.1120072 85.5336193,64.9802314 C86.4199755,64.0173347 87.7067938,63.6343644 88.614508,62.7097647 C89.9389471,61.3009908 91.3344655,59.964236 92.7953327,58.7049897 C93.9484361,57.6562689 95.4343587,57.0729279 96.9761574,57.0636885 C102.123431,57.0253915 107.265365,57.0144495 112.412638,57.0636885 C114.25296,57.050404 116.018383,57.8095508 117.298276,59.1645541 C118.574415,60.4830661 119.813178,61.8508171 121.16941,63.076322 C123.198418,64.9091084 125.50508,66.1291423 128.318994,66.0853742 C130.572261,66.0470772 132.825528,66.0853742 135.084135,66.0853742 C137.065087,66.0853742 137.123822,66.1729103 137.027711,68.2354788 C136.744718,74.1277502 140.690604,79.144661 146.286395,79.9160726 C147.354294,80.0637897 147.760096,80.5725931 147.92562,81.6339679 C148.66781,86.4210964 151.764717,89.840474 156.308628,90.7760157 C157.830384,91.0933339 158.529858,91.8155065 158.844888,93.3802136 C159.614913,97.7757274 163.03889,101.176121 167.350704,101.827444 C168.696257,102.040813 169.267583,102.566029 169.486502,103.944723 C170.853413,112.424779 180.918361,116.052055 187.106836,110.312971 C188.596555,108.928807 190.011521,107.47352 191.426488,106.012762 C192.435652,104.9678 192.804077,104.918561 193.855958,105.930697 C194.907839,106.942833 195.933022,108.064389 196.979563,109.120292 C199.083324,111.253984 201.480757,112.802278 204.529609,113.075828 C209.335155,113.513509 214.925606,110.066776 215.83866,104.262041 C216.078937,102.719218 216.773071,102.073639 218.26279,101.800089 C222.604096,101.032079 225.981113,97.508014 226.651137,93.0464824 C226.886075,91.7224994 227.510796,90.9893848 228.824312,90.8143127 C233.629858,90.1742052 236.967042,85.78646 237.458276,81.787156 C237.602442,80.5944771 238.056299,80.0747317 239.252346,79.8777755 C244.890853,78.9531758 248.655197,74.0292722 248.329488,68.1205878 C248.228037,66.2713884 248.329488,66.1291423 250.139577,66.1236713 C255.041233,66.1236713 259.94289,66.1236713 264.839207,66.1236713 C266.077338,66.0253925 267.252012,66.6983767 267.818645,67.8306245 C269.270988,70.2871054 271.316015,71.9557616 274.226039,72.3770289 C278.944407,73.1265999 283.43098,70.0290794 284.52474,65.2668274 C285.6185,60.5045755 282.950954,55.6820142 278.401525,54.1968824 L278.406864,54.1804694 Z M325.186181,4.84295451 C326.179952,4.85100038 327.12801,5.27184828 327.813416,6.00919794 C328.498821,6.7465476 328.862913,7.73729119 328.822378,8.75472243 C328.797293,9.74252369 328.388588,10.6792419 327.686913,11.3571157 C326.985238,12.0349894 326.048596,12.3979829 325.084731,12.3655851 C324.089686,12.3979643 323.128077,11.995627 322.439563,11.2588473 C321.751049,10.5220677 321.400481,9.52024269 321.475232,8.50305625 C321.521913,6.44912431 323.17596,4.81783229 325.180842,4.84842552 L325.186181,4.84295451 Z M103.730619,12.3710561 C101.482691,12.3710561 100.057046,10.9267111 100.046367,8.62888934 C100.034572,6.54855073 101.670919,4.8523053 103.701252,4.84021909 C105.731584,4.82813288 107.387056,6.5047827 107.398852,8.58512131 C107.454521,9.60081221 107.086899,10.5929946 106.387407,11.3149316 C105.687914,12.0368686 104.722273,12.4207298 103.730619,12.3710561 Z M55.6591437,66.9169669 C54.6995074,66.9099745 53.7829777,66.5076414 53.1160444,65.8006112 C52.449111,65.093581 52.0878742,64.1413269 52.1137189,63.1583871 C52.0738674,62.1452473 52.4503321,61.1613842 53.1515981,60.4459661 C53.852864,59.7305479 54.8147063,59.3490954 55.8033101,59.3943362 C57.1442773,59.3764029 58.3882245,60.1086251 59.0485903,61.3045991 C59.7089562,62.500573 59.6807912,63.9702272 58.9751119,65.1387164 C58.2694327,66.3072055 56.9983901,66.9888261 55.6591437,66.9169669 Z M210.034628,104.666895 C209.420586,106.176892 207.151301,107.610295 205.394607,107.599353 C203.805337,107.56366 202.299911,106.861623 201.229801,105.657147 C195.911664,100.186143 190.602426,94.7151386 185.302087,89.2441345 C184.768137,88.6970341 184.234188,88.2319988 183.700238,87.6903694 C181.593094,85.5854796 181.545333,82.1305074 183.593448,79.9653116 C184.583771,78.92903 185.939632,78.3450053 187.355123,78.3450053 C188.770613,78.3450053 190.126474,78.92903 191.116797,79.9653116 C197.022279,85.9578847 202.895723,91.9759892 208.737131,98.0196251 C210.570697,99.6893768 211.100376,102.402999 210.034628,104.666895 Z M220.959236,93.2872066 C220.115595,95.3661881 218.455012,96.4494469 215.929431,96.4549179 C213.953818,96.6956421 212.613605,95.245826 211.310768,93.921843 C205.89118,88.4180129 200.541006,82.8430598 195.153455,77.3064036 C193.871976,75.9878916 192.916207,74.5709016 192.948244,72.5794561 C192.890265,70.6777232 193.906801,68.9119477 195.559257,68.0439937 C197.476136,66.9771479 199.403693,66.9880899 201.192424,68.399609 C201.724606,68.8409739 202.229286,69.3160575 202.703502,69.82207 C208.398963,75.6140397 214.094425,81.4096567 219.789886,87.208921 C221.409581,88.7603651 221.880392,91.1988365 220.959236,93.2653225 L220.959236,93.2872066 Z M230.53829,83.9864996 C228.53064,86.0600102 225.449751,86.0709522 223.281916,83.9482026 C221.33834,82.0442932 219.43214,80.1184997 217.53128,78.1379962 C213.430547,73.9107338 209.322696,69.6761766 205.207725,65.4343248 C203.580111,63.9351104 203.124147,61.5097242 204.09177,59.4982853 C204.922504,57.5182229 206.859723,56.2689345 208.96139,56.357929 C210.323696,56.2929561 211.645832,56.8404303 212.581568,57.8569841 C217.547298,62.9121919 222.464973,68.0166387 227.404006,73.0992015 C228.471905,74.1934023 229.539804,75.2876031 230.607703,76.3818039 C231.586562,77.3976249 232.129646,78.7714784 232.116616,80.1989441 C232.103587,81.6264097 231.53552,82.9896152 230.53829,83.9864996 Z M242.38129,71.3594222 C241.555108,73.1986244 239.785655,74.4016658 237.810682,74.4669525 C236.208834,74.3794164 234.97541,73.9198521 233.987604,72.9241293 C227.936176,66.7236581 221.884748,60.5104211 215.83332,54.2844184 C214.024775,52.3519017 213.912383,49.3389189 215.571685,47.2705912 C217.266632,45.2715885 220.098495,44.7666626 222.352844,46.0614993 C224.232346,47.2213522 225.524504,49.0322545 227.056939,50.5586646 C231.905201,55.3731482 236.625314,60.3189359 241.356107,65.2537816 C243.016656,66.8136475 243.438192,69.326423 242.38129,71.3648932 L242.38129,71.3594222 Z M275.795851,66.9169669 C274.293522,66.9475885 272.92445,66.037647 272.339252,64.6195697 C271.754055,63.2014924 272.070725,61.5612065 273.138774,60.4782178 C274.206823,59.395229 275.810899,59.0879007 277.188705,59.7022829 C278.566511,60.3166652 279.440239,61.7288802 279.394671,63.2678071 C279.304256,65.258265 277.739301,66.8451103 275.795851,66.9169669 Z" id="path-31"></path>
        <filter x="-10.8%" y="-23.0%" width="121.6%" height="154.8%" filterUnits="objectBoundingBox" id="filter-4">
            <feOffset dx="0" dy="5" in="SourceAlpha" result="shadowOffsetOuter1"></feOffset>
            <feGaussianBlur stdDeviation="9.5" in="shadowOffsetOuter1" result="shadowBlurOuter1"></feGaussianBlur>
            <feColorMatrix values="0 0 0 0 0   0 0 0 0 0   0 0 0 0 0  0 0 0 0.15 0" type="matrix" in="shadowBlurOuter1"></feColorMatrix>
        </filter>
        <path d="M19.1432343,27.7641446 C24.3928415,27.6390507 29.6424486,27.9273106 34.8920558,27.5357122 C35.7705397,27.4704458 36.7874515,27.4976401 37.3092177,28.5364638 C38.4716607,29.3536556 39.5179896,30.331017 40.4185185,31.4408189 C43.6449504,35.1718818 47.5954662,36.8796861 52.5469212,36.7926642 C57.0564721,36.6947646 61.5660231,36.3357994 66.0862224,36.6131816 C70.7714701,36.9449525 74.0351711,34.3071019 76.6759471,30.8914933 C78.2731907,28.8084071 80.0301586,27.5357122 82.6017207,27.4758847 C83.6239566,27.4758847 84.6408683,27.4758847 85.65778,27.4758847 C87.7951398,27.7480534 89.9573118,27.7480534 92.0946716,27.4758847 C96.6681123,27.584662 101.241553,27.3290352 105.825642,27.4486903 C110.617373,27.5737843 115.409103,27.4486903 120.163565,27.4813235 C121.089966,27.4813235 122.011043,27.6172952 122.926796,27.666245 C126.187723,27.8606714 129.456973,27.8606714 132.717899,27.666245 C134.249047,27.5449505 135.453239,26.2798634 135.529048,24.7129401 C135.636388,24.2098766 135.527739,23.6839374 135.230566,23.2680792 C134.933393,22.852221 134.476139,22.5862463 133.974398,22.5373932 C133.238854,22.2572194 132.449796,22.1548329 131.669043,22.2382555 L99.1331915,22.2382555 C98.3026248,22.2382555 97.4827065,22.2926442 96.8171883,21.5855914 C93.2677582,17.8037657 89.7183281,14.0291919 86.168898,10.2618698 C83.4056666,7.38470907 79.9662688,6.57431785 76.1541809,6.64502312 C71.5700919,6.732045 66.9806788,6.64502312 62.3912656,6.64502312 C61.560699,6.64502312 60.9430981,6.51992917 60.5437872,5.55724967 C57.8817146,-0.746397461 50.8218981,-1.89943732 46.269754,3.19134242 C44.0921786,5.65514928 43.6875436,9.42428428 45.2475181,12.5733884 C46.8202832,15.5119773 49.8655699,17.3097154 53.1432254,17.2344976 C55.1184833,17.1474758 56.6411888,16.1467242 58.2916738,15.3200164 C59.3565029,15.2656277 59.9315105,14.5748916 60.3787387,13.6883562 C60.8133809,12.7057943 61.8017085,12.1043626 62.8544662,12.18179 C67.6887901,12.18179 72.5231139,12.1545956 77.3574377,12.2144232 C78.8801432,12.2144232 80.4241453,12.4646111 81.5741607,13.6230898 C83.8142558,15.7705985 85.9466357,18.0324284 87.9631349,20.3999184 C88.1707766,20.6555451 88.554115,20.8894164 88.3305009,21.2810149 C88.1068868,21.6726133 87.7182242,21.5257639 87.3828031,21.5312028 C85.8228285,21.5312028 84.2522057,21.6182246 82.6975553,21.5312028 C76.6280298,21.1722375 73.3004391,25.3656042 69.9196069,29.4828267 C69.8077998,29.6187984 69.8237723,29.8635474 69.7439101,30.0267134 C68.8087096,30.6864061 67.6837791,31.0062584 66.549423,30.9350042 C66.0932808,31.1133791 65.5983681,31.1622452 65.1172279,31.0764148 C60.6875392,31.0764148 56.2507515,31.0764148 51.806865,31.0764148 C51.1360227,31.0764148 50.449208,31.2341419 49.7943381,30.9404431 C47.9042666,31.0165872 46.599851,29.8853028 45.3752976,28.6452411 C42.7877631,26.0345848 40.4664358,23.0432079 36.6117547,22.2545721 C30.7161512,22.2545721 24.8187731,22.2545721 18.9196202,22.2545721 C18.2061848,22.2545721 17.3223767,22.4503713 16.9763072,21.5910303 C16.0924991,19.350217 14.3834485,17.9197949 12.5466185,16.5872724 C10.9919681,15.499499 9.21902772,15.8312699 7.51530127,15.8747808 C6.83913483,15.8747808 6.01389233,15.8421476 5.53471926,16.5927113 L4.92776671,17.136598 C4.49373325,17.0369874 4.03892696,17.1451285 3.69256503,17.4302969 C2.34023215,18.8063303 0.870768085,20.1116584 0.593912536,22.2219389 C0.580193712,22.6694389 0.478813015,23.109591 0.295760406,23.5163893 C-0.180171084,24.2460859 -0.0722504198,25.2199263 0.551319374,25.822469 C1.25055711,28.1212969 1.84153722,29.5208987 2.32425972,30.0212745 L2.60643941,30.3204122 C2.84602595,30.7663993 2.94186056,31.272214 3.20806782,31.7018845 C3.37590054,31.8574594 3.57098961,31.9792494 3.7830755,32.0608497 C6.12037523,33.8991869 8.75582709,33.8665537 11.4817894,33.3933722 C13.0364398,33.1214289 14.106593,31.9031226 15.4908707,31.3211638 C16.1013727,30.5270892 16.6692815,29.713072 17.1945972,28.8791124 C17.6068216,28.1830564 18.3468802,27.759611 19.1432343,27.7641446 Z M49.4016896,10.5204273 C48.716953,9.3436934 48.716953,7.87865386 49.4016896,6.70191994 C50.0864262,5.52518603 51.3462616,4.82517254 52.685349,4.87739127 C54.7132068,4.91150014 56.3555554,6.57006314 56.4122506,8.6410874 C56.4111205,9.64014461 56.0155329,10.5964962 55.3150328,11.293663 C54.6145326,11.9908299 53.6683539,12.3698599 52.6906731,12.344956 C51.3462616,12.3971747 50.0864262,11.6971612 49.4016896,10.5204273 Z M5.27916029,24.6911846 C5.2797581,22.6095034 6.8561511,20.8827601 8.88893072,20.7371281 C10.9869519,20.7177048 12.7213641,22.4028259 12.8075016,24.5443352 C12.7240813,26.56614 11.1730073,28.2043872 9.19773114,28.3569811 C7.16743795,28.3237797 5.48654622,26.7491775 5.27916029,24.6911846 Z" id="path-51"></path>
        <filter x="-22.9%" y="-70.7%" width="145.7%" height="268.5%" filterUnits="objectBoundingBox" id="filter-6">
            <feOffset dx="0" dy="5" in="SourceAlpha" result="shadowOffsetOuter1"></feOffset>
            <feGaussianBlur stdDeviation="9.5" in="shadowOffsetOuter1" result="shadowBlurOuter1"></feGaussianBlur>
            <feColorMatrix values="0 0 0 0 0   0 0 0 0 0   0 0 0 0 0  0 0 0 0.15 0" type="matrix" in="shadowBlurOuter1"></feColorMatrix>
        </filter>
        <path d="M366.160317,40.0116224 C365.887614,40.2401251 365.368942,40.0966467 365.272694,40.5908501 C364.589705,41.0767899 363.991762,41.6710295 363.502795,42.3497893 C362.903916,44.5391637 361.48158,45.1449615 359.225092,45.0439952 C354.915307,44.8526906 350.58948,44.9536569 346.274348,45.001483 C344.238148,45.0860359 342.277376,44.228482 340.96465,42.6792582 C337.922134,39.2889163 334.697815,36.1430191 329.639432,36.2067873 C328.955,35.3459168 312.908268,35.8401203 312.325431,35.9676566 C310.566226,36.1270771 308.774938,36.3183817 307.459545,37.6096874 C306.137096,38.9462769 302.767691,44.0430182 297.925615,44.3319171 C296.556751,44.4381974 295.193233,44.5497917 293.819021,44.5497917 C279.492282,44.5497917 265.165544,44.5497917 250.838805,44.5497917 C249.11703,44.8845747 248.582317,45.5381986 248.544887,47.3343359 C248.512804,48.9710526 249.416469,49.9913436 251.218451,50.3739527 C259.923576,50.4270929 268.6287,50.3739527 277.328478,50.3739527 C279.137721,50.4124647 280.934618,50.6803301 282.675606,51.1710551 C283.2133,51.3984451 283.715635,51.7008426 284.167455,52.0691237 C286.74477,54.5029428 289.070771,57.1812066 291.583921,59.6787939 C293.722773,61.8044002 295.562185,64.2594753 298.743726,64.9343553 C299.45149,65.2618797 300.211634,65.4633295 300.98952,65.5295251 C305.914225,65.5560951 310.844277,65.6730035 315.774329,65.4657569 C317.458674,65.1894281 318.576224,65.4657569 319.624261,67.224696 C320.928883,69.5163445 323.391866,70.9135905 326.040815,70.8647967 C326.671776,70.7691444 327.404333,71.0986133 327.901616,70.4237334 C331.286348,70.0464383 334.184491,67.7188995 334.981213,64.7271087 C335.95439,61.0923221 334.831494,57.5000476 332.04564,55.4435236 C330.785146,54.6066975 329.371807,54.0235595 327.885574,53.7270965 C326.906251,53.4265504 325.846459,53.5299583 324.944654,54.0140534 C324.438338,53.9969534 323.935457,54.1027435 323.479541,54.3222663 C321.930525,54.3831688 320.519572,55.2244987 319.736551,56.5541528 C319.355522,57.063181 319.007264,57.5956451 318.693861,58.1483575 C318.300463,59.0174868 317.398341,59.5456126 316.44272,59.4662333 C311.88162,59.4662333 307.315172,59.4981174 302.754072,59.4396632 C300.911206,59.4821691 299.140928,58.7256827 297.904227,57.3671972 C296.583486,55.927099 295.118373,54.6198512 293.76555,53.206323 C292.906129,52.4190188 292.200888,51.4803164 291.685517,50.4377209 C294.107766,50.2464164 296.358907,50.3473827 298.599353,50.3420687 C300.723368,50.3609723 302.79899,49.7118232 304.529319,48.4874772 C306.502409,47.1005192 308.047729,45.2459278 309.769504,43.5826409 C310.646433,42.7377124 311.576833,42.0787745 312.84945,42.1000306 C315.706183,41.6832937 318.593067,41.5055361 321.479715,41.568629 C324.759022,41.5226741 328.037979,41.6824119 331.297042,42.0468904 C332.874445,42.4294995 334.296781,43.0246693 335.200445,44.4966516 C339.848882,48.0605846 343.303127,49.8319232 345.56318,49.8106671 C349.675121,49.7415849 353.803104,49.9594595 357.893657,49.6353046 C360.754371,49.4068019 362.861139,49.9700876 363.775498,52.9034241 C365.83949,55.3584993 369.705463,56.4638145 372.534094,55.5604319 C376.142093,54.5618114 378.67708,51.3470271 378.790234,47.6266067 C379.046896,41.3082422 372.058199,36.8444692 366.160317,40.0116224 Z M326.79476,58.4884545 C327.782654,58.4610227 328.739338,58.8338201 329.44518,59.521262 C330.151023,60.2087039 330.545391,61.1517385 330.53775,62.1338691 C330.53775,64.4348379 329.184926,65.7845978 326.917744,65.7739698 C325.933073,65.7998078 324.979762,65.4286824 324.274743,64.7450456 C323.569725,64.0614088 323.172967,63.1234099 323.174754,62.1444972 C323.207894,60.1616805 324.800381,58.5533397 326.79476,58.4884545 Z M370.389896,51.128543 C368.407311,51.0759959 366.810128,49.4956969 366.748501,47.5256404 C366.748501,45.2831259 368.058548,43.8695977 370.208093,43.8058295 C371.225425,43.7470062 372.221834,44.1095779 372.960419,44.8073415 C373.699004,45.5051051 374.113786,46.4757287 374.10615,47.4884423 C374.030364,49.4873097 372.402105,51.0822018 370.389896,51.128543 Z" id="path-71"></path>
        <filter x="-23.8%" y="-74.0%" width="147.6%" height="276.4%" filterUnits="objectBoundingBox" id="filter-8">
            <feOffset dx="0" dy="5" in="SourceAlpha" result="shadowOffsetOuter1"></feOffset>
            <feGaussianBlur stdDeviation="9.5" in="shadowOffsetOuter1" result="shadowBlurOuter1"></feGaussianBlur>
            <feColorMatrix values="0 0 0 0 0   0 0 0 0 0   0 0 0 0 0  0 0 0 0.15 0" type="matrix" in="shadowBlurOuter1"></feColorMatrix>
        </filter>
        <path d="M57.5377778,49.9524439 C62.996035,49.9023667 68.459607,49.9524439 73.923179,49.9524439 C74.3662694,49.9883515 74.8035683,49.829023 75.1296292,49.5128775 C76.367968,49.5128775 77.4309197,48.7505916 78.6320552,48.5781035 C81.1618804,46.9088642 83.1814887,44.6053139 85.2489298,42.3852255 C86.2781126,41.2175999 87.6779271,40.4818859 89.187166,40.3153687 C89.349163,40.4114951 89.5324379,40.4613825 89.7186419,40.4600361 C103.809839,40.4600361 117.901036,40.4600361 131.992233,40.4600361 C132.792967,40.5272435 133.555292,40.0899314 133.93212,39.3472099 L134.240376,38.501462 C133.990582,36.042116 133.358126,35.4411898 130.966484,35.4411898 C117.41385,35.4411898 103.861215,35.4411898 90.3085801,35.4411898 C89.0414303,35.4009815 87.7739589,35.5092272 86.5297867,35.7639094 C83.1708592,37.1605063 80.8695686,39.9481361 78.4460387,42.5521494 C77.3899576,43.6796723 76.0070396,44.4094445 74.5131172,44.6275704 C73.999836,44.4484187 73.4526481,44.4025897 72.9186896,44.4940312 C59.9790237,44.4940312 47.0464441,44.4940312 34.1209509,44.4940312 C33.5256979,44.4940312 32.8294645,44.7555454 32.3830248,44.0433366 L31.2297221,41.8399407 C31.1104148,41.7536968 30.9983942,41.656897 30.8948923,41.5506058 C28.6361199,38.8074892 25.8246125,37.572252 22.4284817,38.5292826 C19.2957901,39.3004814 16.8646618,41.8868015 16.1783254,45.1784194 C14.7964882,50.7425505 19.8986565,56.6071448 25.3090809,55.8003458 C28.2268835,55.3663435 30.2039737,53.7416172 31.8090308,51.3490408 C31.8726487,50.8835661 32.0754482,50.4511447 32.3883395,50.1138037 C40.769714,49.7632634 49.1564033,50.0303417 57.5377778,49.9524439 Z M24.469349,50.8872179 C23.4831189,50.9344098 22.5214828,50.5565298 21.8084839,49.8416167 C21.0954851,49.1267037 20.6933867,48.1371882 20.6958703,47.1036087 C20.6958703,44.527416 22.5400916,43.3366919 24.2248701,43.2087169 C25.2347824,43.146572 26.222707,43.5343955 26.9446061,44.2763868 C27.6665052,45.0183781 28.0550614,46.0453463 28.0142931,47.1036087 C28.0448339,48.1039517 27.6834665,49.0738913 27.0140293,49.7883987 C26.3445921,50.502906 25.4252702,50.8998788 24.469349,50.8872179 Z" id="path-91"></path>
        <filter x="-26.2%" y="-127.2%" width="152.4%" height="403.3%" filterUnits="objectBoundingBox" id="filter-10">
            <feOffset dx="0" dy="5" in="SourceAlpha" result="shadowOffsetOuter1"></feOffset>
            <feGaussianBlur stdDeviation="9.5" in="shadowOffsetOuter1" result="shadowBlurOuter1"></feGaussianBlur>
            <feColorMatrix values="0 0 0 0 0   0 0 0 0 0   0 0 0 0 0  0 0 0 0.15 0" type="matrix" in="shadowBlurOuter1"></feColorMatrix>
        </filter>
        <path d="M283.881364,26.5960888 C283.381626,28.1834384 282.483162,28.6958459 280.851039,28.6847066 C268.229999,28.6067316 255.608958,28.662428 243.009184,28.662428 C241.642879,28.662428 240.281891,28.662428 238.915586,28.662428 C237.979906,28.662428 237.177136,28.9019229 236.953849,30.038131 L236.672082,30.6619315 C236.289304,32.7783975 237.129289,33.8756181 239.149506,33.8756181 L257.756768,33.8756181 C265.660424,33.8756181 273.565853,33.8756181 281.473053,33.8756181 C282.57354,33.8756181 283.456056,34.0594164 283.993008,35.2401817 C284.666629,36.4959184 285.604852,37.5740856 286.73625,38.3926022 C287.539021,39.0553902 288.490649,39.7293176 289.670881,39.2670368 C291.972436,39.8689179 294.410079,39.3911008 296.34823,37.9581697 C298.251487,36.6158846 299.086156,34.5773937 299.920824,32.5054848 C300.601319,31.2133266 300.40993,29.8097754 300.080315,28.5343261 C299.517796,26.2641109 298.13844,24.3100701 296.23127,23.0816413 C295.82191,22.8087285 295.508245,22.3854353 294.955344,22.6861963 L294.652311,22.3965746 C294.011592,21.9916367 293.273816,21.7868114 292.525767,21.806192 C291.898436,22.106953 291.186044,21.7282169 290.558713,22.0735351 L288.214198,22.391005 C286.199298,23.1596163 284.577808,24.3960781 283.881364,26.5960888 Z M291.414647,26.9525463 C293.674101,26.9525463 295.1361,28.4173635 295.189263,30.7064887 C295.190257,32.8127525 293.594257,34.5390453 291.584771,34.6052419 C290.596959,34.6342681 289.640748,34.2390142 288.937981,33.5111788 C288.235213,32.7833433 287.846968,31.7861858 287.863319,30.7510458 C287.895217,28.4396421 289.29342,26.9469766 291.414647,26.9469766 L291.414647,26.9525463 Z" id="path-111"></path>
        <filter x="-48.6%" y="-146.8%" width="197.2%" height="450.0%" filterUnits="objectBoundingBox" id="filter-12">
            <feOffset dx="0" dy="5" in="SourceAlpha" result="shadowOffsetOuter1"></feOffset>
            <feGaussianBlur stdDeviation="9.5" in="shadowOffsetOuter1" result="shadowBlurOuter1"></feGaussianBlur>
            <feColorMatrix values="0 0 0 0 0   0 0 0 0 0   0 0 0 0 0  0 0 0 0.15 0" type="matrix" in="shadowBlurOuter1"></feColorMatrix>
        </filter>
        <path d="M84.0715316,0 L2.54773586,0 C1.14082463,0 0,1.14266183 0,2.55183877 L0,145.448161 C0,146.857338 1.14082463,148 2.54773586,148 L104.452264,148 C105.859175,148 107,146.857338 107,145.448161 L107,22.9653926 L84.0715316,0 Z" id="path-13"></path>
        <filter x="-29.0%" y="-17.6%" width="157.9%" height="141.9%" filterUnits="objectBoundingBox" id="filter-14">
            <feOffset dx="0" dy="5" in="SourceAlpha" result="shadowOffsetOuter1"></feOffset>
            <feGaussianBlur stdDeviation="9.5" in="shadowOffsetOuter1" result="shadowBlurOuter1"></feGaussianBlur>
            <feColorMatrix values="0 0 0 0 0   0 0 0 0 0   0 0 0 0 0  0 0 0 0.15 0" type="matrix" in="shadowBlurOuter1"></feColorMatrix>
        </filter>
    </defs>
    <g id="Main-1920" stroke="none" stroke-width="1" fill="none" fill-rule="evenodd">
        <g transform="translate(-39.000000, -1865.000000)" fill-rule="nonzero" id="Group-9">
            <g transform="translate(39.000000, 1879.000000)">
                <g id="Group-4" transform="translate(0.000000, 47.000000)">
                    <g id="laptop">
                        <path d="M366.691262,3.43382803 C364.457467,1.12043146 361.499131,0 358.534109,0 L51.4683976,0 C48.5159113,0 45.5533966,1.12043146 43.3070668,3.43382803 C41.0607369,5.72503783 39.9350649,8.73561072 39.9350649,11.7632503 L39.9350649,216.988235 L370.064935,216.988235 L370.064935,11.7632503 C370.062428,8.73561072 368.954305,5.72503783 366.691262,3.43382803 Z" id="Shape" fill="#353F49"></path>
                        <polygon id="Rectangle-path" fill="#FFFFFF" points="53.2467532 13.6470588 355.422078 13.6470588 355.422078 215.623529 53.2467532 215.623529"></polygon>
                        <path d="M53.2467532,119.629997 C98.4948976,141.844075 149.881866,133.157114 207.407657,93.5691135 C264.933448,53.9811132 314.271589,45.6405061 355.422078,68.5472921 L355.422078,216.988235 L53.2467532,216.988235 L53.2467532,119.629997 Z" id="Rectangle-path" fill="url(#linearGradient-1)" opacity="0.07"></path>
                        <path d="M53.2467532,142.207657 C98.4948976,164.204628 149.881866,155.602568 207.407657,116.401476 C264.933448,77.2003846 314.271589,68.9412934 355.422078,91.6242027 L355.422078,215.623529 L53.2467532,215.623529 L53.2467532,142.207657 Z" id="Rectangle-path" fill="url(#linearGradient-1)" opacity="0.07"></path>
                        <path d="M53.2467532,166.049736 C98.4948976,188.2707 149.881866,179.581046 207.407657,139.980774 C264.933448,100.380502 314.271589,92.0373093 355.422078,114.951196 L355.422078,216.988235 L53.2467532,216.988235 L53.2467532,166.049736 Z" id="Rectangle-path" fill="url(#linearGradient-1)" opacity="0.07"></path>
                        <path d="M53.2375674,232 L356.769122,232 C375.718569,232 393.711387,228.115113 410,221.082353 L0,221.082353 C16.2777427,228.115932 34.2881209,232 53.2375674,232 Z" id="Shape" fill="#C7CBD6"></path>
                        <polygon id="Rectangle-path" fill="#E2E5ED" points="0 215.623529 410 215.623529 410 221.082353 0 221.082353"></polygon>
                        <rect id="Rectangle-path" fill="#C7CBD6" x="174.383117" y="215.623529" width="74.5454545" height="4.09411765"></rect>
                    </g>
                    <g id="laptop" transform="translate(448.000000, 0.000000)">
                        <path d="M366.691262,3.43382803 C364.457467,1.12043146 361.499131,0 358.534109,0 L51.4683976,0 C48.5159113,0 45.5533966,1.12043146 43.3070668,3.43382803 C41.0607369,5.72503783 39.9350649,8.73561072 39.9350649,11.7632503 L39.9350649,216.988235 L370.064935,216.988235 L370.064935,11.7632503 C370.062428,8.73561072 368.954305,5.72503783 366.691262,3.43382803 Z" id="Shape" fill="#353F49"></path>
                        <polygon id="Rectangle-path" fill="#FFFFFF" points="53.2467532 13.6470588 355.422078 13.6470588 355.422078 215.623529 53.2467532 215.623529"></polygon>
                        <path d="M53.2467532,119.629997 C98.4948976,141.844075 149.881866,133.157114 207.407657,93.5691135 C264.933448,53.9811132 314.271589,45.6405061 355.422078,68.5472921 L355.422078,216.988235 L53.2467532,216.988235 L53.2467532,119.629997 Z" id="Rectangle-path" fill="url(#linearGradient-1)" opacity="0.07"></path>
                        <path d="M53.2467532,142.207657 C98.4948976,164.204628 149.881866,155.602568 207.407657,116.401476 C264.933448,77.2003846 314.271589,68.9412934 355.422078,91.6242027 L355.422078,215.623529 L53.2467532,215.623529 L53.2467532,142.207657 Z" id="Rectangle-path" fill="url(#linearGradient-1)" opacity="0.07"></path>
                        <path d="M53.2467532,166.049736 C98.4948976,188.2707 149.881866,179.581046 207.407657,139.980774 C264.933448,100.380502 314.271589,92.0373093 355.422078,114.951196 L355.422078,216.988235 L53.2467532,216.988235 L53.2467532,166.049736 Z" id="Rectangle-path" fill="url(#linearGradient-1)" opacity="0.07"></path>
                        <path d="M53.2375674,232 L356.769122,232 C375.718569,232 393.711387,228.115113 410,221.082353 L0,221.082353 C16.2777427,228.115932 34.2881209,232 53.2375674,232 Z" id="Shape" fill="#C7CBD6"></path>
                        <polygon id="Rectangle-path" fill="#E2E5ED" points="0 215.623529 410 215.623529 410 221.082353 0 221.082353"></polygon>
                        <rect id="Rectangle-path" fill="#C7CBD6" x="174.383117" y="215.623529" width="74.5454545" height="4.09411765"></rect>
                    </g>
                    <g id="Безымянный-2" opacity="0.69" transform="translate(234.000000, 69.000000)">
                        <g id="Shape">
                            <use fill="black" fill-opacity="0.2" filter="url(#filter-4)" xlink:href="#path-31"></use>
                            <use fill="url(#linearGradient-2)" fill-rule="evenodd" xlink:href="#path-31"></use>
                        </g>
                        <g id="Shape">
                            <use fill="black" fill-opacity="1" filter="url(#filter-6)" xlink:href="#path-51"></use>
                            <use fill="url(#linearGradient-2)" fill-rule="evenodd" xlink:href="#path-51"></use>
                        </g>
                        <g id="Shape">
                            <use fill="black" fill-opacity="1" filter="url(#filter-8)" xlink:href="#path-71"></use>
                            <use fill="url(#linearGradient-2)" fill-rule="evenodd" xlink:href="#path-71"></use>
                        </g>
                        <g id="Shape">
                            <use fill="black" fill-opacity="1" filter="url(#filter-10)" xlink:href="#path-91"></use>
                            <use fill="url(#linearGradient-2)" fill-rule="evenodd" xlink:href="#path-91"></use>
                        </g>
                        <g id="Shape">
                            <use fill="black" fill-opacity="1" filter="url(#filter-12)" xlink:href="#path-111"></use>
                            <use fill="url(#linearGradient-2)" fill-rule="evenodd" xlink:href="#path-111"></use>
                        </g>
                    </g>
                </g>
                <g id="contract" transform="translate(639.000000, 0.000000)">
                    <g id="Shape">
                        <use fill="black" fill-opacity="1" filter="url(#filter-14)" xlink:href="#path-13"></use>
                        <use fill="url(#linearGradient-2)" fill-rule="evenodd" xlink:href="#path-13"></use>
                    </g>
                    <g id="Group" transform="translate(13.026087, 13.031447)" fill="#FFFFFF" fill-opacity="0.5">
                        <path d="M20.6420351,5.14294856 L2.77216757,5.14294856 C1.36237027,5.14294856 0.219205405,4.00036015 0.219205405,2.59127375 C0.219205405,1.18218736 1.36237027,0.0395989407 2.77216757,0.0395989407 L20.6420351,0.0395989407 C22.0518324,0.0395989407 23.1949973,1.18218736 23.1949973,2.59127375 C23.1949973,4.00036015 22.0518324,5.14294856 20.6420351,5.14294856 Z" id="Shape"></path>
                        <path d="M30.8535946,15.3490697 L2.77245676,15.3490697 C1.36265946,15.3490697 0.219494595,14.2064813 0.219494595,12.7973949 C0.219494595,11.3883085 1.36265946,10.2457201 2.77245676,10.2457201 L30.8535946,10.2457201 C32.2633919,10.2457201 33.4065568,11.3883085 33.4065568,12.7973949 C33.4062676,14.2067703 32.2633919,15.3490697 30.8535946,15.3490697 Z" id="Shape"></path>
                        <path d="M61.4876946,33.2102153 L20.6420351,33.2102153 C19.2322378,33.2102153 18.089073,32.0676269 18.089073,30.6585405 C18.089073,29.2494541 19.2322378,28.1068657 20.6420351,28.1068657 L61.4874054,28.1068657 C62.8972027,28.1068657 64.0403676,29.2494541 64.0403676,30.6585405 C64.0403676,32.0676269 62.8974919,33.2102153 61.4876946,33.2102153 Z" id="Shape"></path>
                        <path d="M48.7234622,109.756702 L28.3006324,109.756702 C26.8908351,109.756702 25.7476703,108.614114 25.7476703,107.205027 C25.7476703,105.795941 26.8908351,104.653352 28.3006324,104.653352 L48.7234622,104.653352 C50.1332595,104.653352 51.2764243,105.795941 51.2764243,107.205027 C51.2764243,108.614114 50.1332595,109.756702 48.7234622,109.756702 Z" id="Shape"></path>
                    </g>
                    <g id="Group" transform="translate(13.026087, 55.849057)" fill="#FFFFFF" fill-opacity="0.5">
                        <path d="M48.5742783,76.9772936 L35.849128,76.9772936 C34.4436473,76.9772936 33.3039826,75.8291721 33.3039826,74.413262 C33.3039826,72.997352 34.4436473,71.8492304 35.849128,71.8492304 L48.5742783,71.8492304 C49.979759,71.8492304 51.1194236,72.997352 51.1194236,74.413262 C51.1191353,75.8294625 49.979759,76.9772936 48.5742783,76.9772936 Z" id="Shape"></path>
                        <path d="M79.1145813,5.18789445 L2.76367961,5.18789445 C1.3581989,5.18789445 0.218534231,4.03977292 0.218534231,2.62386286 C0.218534231,1.20795281 1.3581989,0.0598312763 2.76367961,0.0598312763 L79.1145813,0.0598312763 C80.520062,0.0598312763 81.6597266,1.20795281 81.6597266,2.62386286 C81.6597266,4.03977292 80.520062,5.18789445 79.1145813,5.18789445 Z" id="Shape"></path>
                        <path d="M79.1145813,15.4434399 L2.76367961,15.4434399 C1.3581989,15.4434399 0.218534231,14.2953184 0.218534231,12.8794083 C0.218534231,11.4634983 1.3581989,10.3153767 2.76367961,10.3153767 L79.1145813,10.3153767 C80.520062,10.3153767 81.6597266,11.4634983 81.6597266,12.8794083 C81.6594383,14.2956088 80.520062,15.4434399 79.1145813,15.4434399 Z" id="Shape"></path>
                        <path d="M79.1145813,25.6992758 L2.76367961,25.6992758 C1.3581989,25.6992758 0.218534231,24.5511543 0.218534231,23.1352442 C0.218534231,21.7193342 1.3581989,20.5712127 2.76367961,20.5712127 L79.1145813,20.5712127 C80.520062,20.5712127 81.6597266,21.7193342 81.6597266,23.1352442 C81.6597266,24.5511543 80.520062,25.6992758 79.1145813,25.6992758 Z" id="Shape"></path>
                        <path d="M79.1145813,35.9548213 L2.76367961,35.9548213 C1.3581989,35.9548213 0.218534231,34.8066998 0.218534231,33.3907897 C0.218534231,31.9748797 1.3581989,30.8267581 2.76367961,30.8267581 L79.1145813,30.8267581 C80.520062,30.8267581 81.6597266,31.9748797 81.6597266,33.3907897 C81.6597266,34.8066998 80.520062,35.9548213 79.1145813,35.9548213 Z" id="Shape"></path>
                        <path d="M79.1145813,46.2103668 L2.76367961,46.2103668 C1.3581989,46.2103668 0.218534231,45.0622452 0.218534231,43.6463352 C0.218534231,42.2304251 1.3581989,41.0823036 2.76367961,41.0823036 L79.1145813,41.0823036 C80.520062,41.0823036 81.6597266,42.2304251 81.6597266,43.6463352 C81.6594383,45.0625357 80.520062,46.2103668 79.1145813,46.2103668 Z" id="Shape"></path>
                    </g>
                    <path d="M81.4130435,138.691824 C74.4871773,138.691824 68.8521739,132.845712 68.8521739,125.660377 C68.8521739,118.475042 74.4871773,112.628931 81.4130435,112.628931 C88.3389097,112.628931 93.973913,118.475042 93.973913,125.660377 C93.973913,132.845712 88.3389097,138.691824 81.4130435,138.691824 Z M81.4130435,117.84145 C77.2572961,117.84145 73.8764648,121.34894 73.8764648,125.660377 C73.8764648,129.971815 77.2572961,133.479304 81.4130435,133.479304 C85.5687909,133.479304 88.9496221,129.971815 88.9496221,125.660377 C88.9496221,121.34894 85.5687909,117.84145 81.4130435,117.84145 Z" id="Shape" fill-opacity="0.5" fill="#FFFFFF"></path>
                    <ellipse id="Oval" fill-opacity="0.5" fill="#FFFFFF" cx="80.9478261" cy="125.660377" rx="2.79130435" ry="2.79245283"></ellipse>
                    <path d="M107,22.3396226 L87.1508183,22.3396226 C85.7806202,22.3396226 84.6695652,21.2280965 84.6695652,19.8573174 L84.6695652,0 L107,22.3396226 Z" id="Shape" fill="#FFFFFF" opacity="0.5"></path>
                </g>
            </g>
        </g>
    </g>
</svg>